<?xml version="1.0" standalone="no"?>
<!DOCTYPE svg PUBLIC "-//W3C//DTD SVG 1.1//EN" "http://www.w3.org/Graphics/SVG/1.1/DTD/svg11.dtd" >
<svg xmlns="http://www.w3.org/2000/svg">
<metadata></metadata>
<defs>
<font id="stanleyitalic" horiz-adv-x="1341" >
<font-face units-per-em="2048" ascent="1638" descent="-410" />
<missing-glyph horiz-adv-x="516" />
<glyph unicode="&#xfb01;" horiz-adv-x="1087" d="M-379 -305q0 63 37 92h147v-29q0 -110 84 -110q49 0 98.5 82t92.5 243l256 951l-160 32l14 48h168q154 477 508 477q267 0 267 -162q0 -63 -37 -92h-148v28q0 55 -43 103.5t-108 48.5q-39 0 -68.5 -11t-62.5 -42t-64 -95t-61 -163l-27 -92h555l-231 -666 q-50 -143 -50 -215q54 34 99 79t96 113l37 -32q-100 -138 -201 -224t-176 -86q-43 0 -43 52q0 56 68 258l206 598l-47 55h-331l-226 -797q-36 -125 -81 -225t-102 -177.5t-129 -120t-153 -42.5q-93 0 -138.5 33t-45.5 88z" />
<glyph unicode="&#xfb02;" horiz-adv-x="1114" d="M-379 -305q0 63 37 92h147v-29q0 -110 84 -110q49 0 98.5 82t92.5 243l256 951l-160 32l14 48h168q77 238 210 357.5t309 119.5q97 0 170 -31l104 25h20l-303 -1065q-59 -218 -49 -287q110 66 205 192l35 -32q-100 -138 -200.5 -224t-174.5 -86q-21 0 -35 17t-14 45 q0 52 31 170l292 1057q-51 145 -165 145q-33 0 -61.5 -11t-62 -41.5t-66.5 -96t-62 -162.5l-27 -92h229l-20 -68h-227l-226 -797q-36 -125 -81 -225t-102 -177.5t-129 -120t-153 -42.5q-93 0 -138.5 33t-45.5 88z" />
<glyph unicode="&#xfb03;" horiz-adv-x="1636" d="M-379 -305q0 63 37 92h147v-29q0 -110 84 -110q49 0 98.5 82t92.5 243l256 951l-160 32l14 48h168q62 189 198.5 309.5t291.5 120.5q80 0 142.5 -28.5t99.5 -66.5q50 45 88.5 72t101 48.5t135.5 21.5q135 0 200.5 -50t65.5 -112q0 -64 -36 -92h-148v28q0 55 -43 103.5 t-108 48.5q-39 0 -68.5 -11t-62.5 -42t-64 -95t-61 -163l-27 -92h555l-232 -666q-49 -140 -49 -215q54 34 99 79t96 113l37 -32q-100 -138 -201 -224t-176 -86q-43 0 -43 52q0 56 68 258l206 598l-47 55h-332l-196 -694q-161 -580 -514 -580q-136 0 -221 78 q-47 -78 -129 -122t-179 -44q-93 0 -138.5 33t-45.5 88zM197 -100q28 -77 81 -120.5t111 -43.5q95 0 159 89.5t111 264.5l228 846h-391zM514 1004h393l62 217q-25 57 -68 98t-106 41q-76 0 -149.5 -77.5t-117.5 -233.5z" />
<glyph unicode="&#xfb04;" horiz-adv-x="1662" d="M-379 -305q0 63 37 92h147v-29q0 -110 84 -110q49 0 98.5 82t92.5 243l256 951l-160 32l14 48h168q62 191 201 310.5t305 119.5q132 0 226 -99q143 146 335 146q97 0 170 -31l105 25h20l-303 -1065q-59 -218 -49 -287q110 66 205 192l35 -32q-100 -138 -200.5 -224 t-174.5 -86q-21 0 -35 17t-14 45q0 56 30 170l293 1057q-51 145 -166 145q-26 0 -48.5 -6t-50 -25.5t-51.5 -52.5t-50.5 -90.5t-50.5 -136.5l-27 -92h229l-20 -68h-228l-196 -694q-161 -580 -514 -580q-136 0 -221 78q-47 -78 -129 -122t-179 -44q-93 0 -138.5 33t-45.5 88z M197 -100q29 -78 80 -121t112 -43q95 0 159 89.5t111 264.5l228 846h-391zM514 1004h393l62 217q-13 30 -24 49.5t-31.5 42.5t-50 35t-68.5 12q-82 0 -152 -76t-115 -235z" />
<glyph horiz-adv-x="0" />
<glyph horiz-adv-x="682" />
<glyph horiz-adv-x="0" />
<glyph horiz-adv-x="0" />
<glyph unicode="&#xd;" horiz-adv-x="1024" />
<glyph unicode=" "  horiz-adv-x="516" />
<glyph unicode="&#x09;" horiz-adv-x="516" />
<glyph unicode="&#xa0;" horiz-adv-x="516" />
<glyph unicode="!" horiz-adv-x="581" d="M59 113q0 60 40 99.5t100 39.5t99.5 -39.5t39.5 -99.5t-39.5 -100t-99.5 -40t-100 40t-40 100zM264 406l86 600l121 448h195l-121 -448l-236 -600h-45z" />
<glyph unicode="&#x22;" horiz-adv-x="720" d="M293 952l98 502h121l-98 -502h-121zM608 952l99 502h120l-98 -502h-121z" />
<glyph unicode="#" horiz-adv-x="1136" d="M61 459l21 82h205l104 383h-205l21 80h205l123 450h102l-123 -450h305l123 450h102l-122 -450h204l-20 -80h-205l-104 -383h204l-20 -82h-207l-123 -459h-102l123 459h-305l-123 -459h-103l123 459h-203zM389 541h305l105 383h-305z" />
<glyph unicode="$" horiz-adv-x="1091" d="M-6 -18l94 483h62l4 -19q31 -126 99 -225.5t167 -144.5l110 575q-53 55 -89 99t-73 102.5t-56 121t-19 128.5q0 159 107.5 259.5t289.5 117.5l17 77h108l-16 -77q121 -9 225 -66l43 60h59l-84 -431h-61l-8 50q-20 105 -70 181t-123 111l-110 -573q54 -56 89 -98 t72.5 -102t56.5 -127.5t19 -143.5q0 -151 -108 -255.5t-291 -111.5l-14 -75h-109l14 79q-135 14 -268 80l-76 -75h-61zM442 1180q0 -74 35.5 -139.5t102.5 -135.5l98 504h-8q-109 0 -168.5 -59.5t-59.5 -169.5zM522 49h29q77 0 127.5 34.5t70 83t19.5 107.5q0 68 -38 135 t-109 146z" />
<glyph unicode="%" horiz-adv-x="1867" d="M162 920q0 90 27 185t77 180.5t134.5 140.5t187.5 55q132 0 195 -83.5t63 -217.5q0 -90 -27 -186.5t-77 -182.5t-134.5 -141.5t-187.5 -55.5q-68 0 -118.5 24t-80.5 67t-44.5 97t-14.5 118zM174 0l1442 1454h110l-1433 -1454h-119zM322 881q0 -203 110 -203q58 0 108 60 t80 147t47 176t17 156q0 202 -111 202q-58 0 -108 -60t-79.5 -147t-46.5 -175.5t-17 -155.5zM1075 279q0 90 27 185t77 180.5t134.5 140.5t187.5 55q132 0 195 -83.5t63 -217.5q0 -90 -27 -186.5t-77 -182.5t-134.5 -141.5t-187.5 -55.5q-68 0 -118.5 24t-80.5 67t-44.5 97 t-14.5 118zM1235 240q0 -203 111 -203q58 0 108 60t79.5 147t46.5 175.5t17 155.5q0 203 -110 203q-58 0 -108 -60t-80 -147t-47 -175.5t-17 -155.5z" />
<glyph unicode="&#x26;" horiz-adv-x="1372" d="M-8 160q0 75 33.5 177t90 207t134.5 208t162.5 183t179 129.5t178.5 49.5q48 0 81.5 -23t29.5 -69l75 57q85 66 111.5 133t26.5 146v96h180q35 -49 35 -82q0 -38 -19 -75t-56 -73t-77 -67.5t-97 -73.5q-8 -5 -12.5 -8.5t-11 -8.5t-12.5 -9l-809 -594q-27 -100 -27 -160 q0 -102 22.5 -147t82.5 -45q81 0 217 101.5t253.5 231.5t172.5 228h-131l14 39l332 258h41l-76 -230h217l-20 -67h-219l-211 -672h-154l170 512h-4q-86 -123 -215 -246t-268.5 -208t-233.5 -85q-92 0 -139 44t-47 143zM244 547l440 330q8 46 -7.5 80t-49.5 34 q-100 0 -207.5 -134t-175.5 -310z" />
<glyph unicode="'" horiz-adv-x="405" d="M293 952l98 502h121l-98 -502h-121z" />
<glyph unicode="(" horiz-adv-x="606" d="M92 285q0 184 54.5 373t145.5 348.5t206.5 291.5t240.5 220l17 -45q-236 -220 -386.5 -555.5t-150.5 -675.5q0 -186 44.5 -360.5t123.5 -311.5l-35 -47q-108 116 -184 327.5t-76 434.5z" />
<glyph unicode=")" horiz-adv-x="604" d="M-106 -432q235 220 385.5 555.5t150.5 675.5q0 186 -44.5 360t-123.5 311l35 48q108 -116 184 -327.5t76 -434.5q0 -184 -54.5 -373t-145.5 -348.5t-206.5 -291.5t-240.5 -220z" />
<glyph unicode="*" horiz-adv-x="925" d="M209 1210l117 68l204 -145l2 2l-18 264l115 82l82 -82l-119 -266l2 -3l260 148l94 -66l-71 -120l-279 -19l-2 -4l180 -172l-53 -123l-127 -2l-53 266h-4l-148 -266h-129l-10 125l246 174v4l-269 17z" />
<glyph unicode="+" horiz-adv-x="1046" d="M78 526l18 95h377l76 383h106l-75 -383h376l-18 -95h-377l-76 -399h-106l76 399h-377z" />
<glyph unicode="," horiz-adv-x="520" d="M-68 -246q74 29 149 89t105 130q-74 1 -109.5 40t-35.5 100t41 100t108 39q61 0 96.5 -36.5t35.5 -104.5q0 -56 -35 -119t-89.5 -117t-120 -97.5t-128.5 -66.5z" />
<glyph unicode="-" horiz-adv-x="751" d="M188 545v82h451v-82h-451z" />
<glyph unicode="." horiz-adv-x="512" d="M41 113q0 60 39.5 99.5t99.5 39.5t99.5 -39.5t39.5 -99.5t-39.5 -100t-99.5 -40t-99.5 40t-39.5 100z" />
<glyph unicode="/" horiz-adv-x="954" d="M-47 0l989 1454h113l-989 -1454h-113z" />
<glyph unicode="0" horiz-adv-x="1255" d="M115 518q0 111 27.5 239t85.5 256.5t137 232.5t192.5 169.5t241.5 65.5q84 0 151 -27.5t111.5 -75t74 -115t42 -144t12.5 -165.5q0 -108 -21.5 -222t-61 -223.5t-100 -206.5t-134.5 -170t-169 -116t-198 -43q-102 0 -179 43t-122.5 119.5t-67.5 172.5t-22 210zM299 352 q0 -317 219 -317q86 0 159 53t123.5 142t89 197t60.5 225.5t32.5 219.5t10.5 187q0 105 -18.5 182t-66.5 127.5t-124 50.5q-70 0 -133 -43t-111 -114.5t-88.5 -165t-68 -194.5t-47 -203.5t-28.5 -190t-9 -156.5z" />
<glyph unicode="1" horiz-adv-x="794" d="M-20 0l10 57h145l98 86l213 1051q-122 -72 -247 -111l14 72q233 88 420 320h45l-264 -1332l65 -86h144l-11 -57h-632z" />
<glyph unicode="2" horiz-adv-x="1138" d="M-25 84l72 31q96 76 164.5 132t154 130t145.5 135t125.5 133.5t109 139.5t80 140t54 148t17.5 150q0 95 -45.5 146.5t-136.5 51.5q-113 0 -179.5 -79t-66.5 -201l-2 -111h-195q-24 39 -24 96q0 86 67.5 167.5t187.5 134.5t257 53q338 0 338 -260q0 -100 -58 -217.5 t-150.5 -228t-221.5 -229.5t-255.5 -217.5t-267.5 -195.5v-4q78 14 167.5 14t154.5 -4t135 1.5t139.5 38t137.5 97.5l82 80h36l-129 -346q-49 -30 -136.5 -46.5t-168.5 -16.5q-67 0 -126.5 19t-96.5 41.5t-88.5 41.5t-104.5 19q-19 0 -37 -3.5t-28.5 -6t-27 -12t-21 -12.5 t-23.5 -17.5t-22 -16.5q-27 36 -13 84z" />
<glyph unicode="3" horiz-adv-x="1142" d="M43 340l51 20q25 -48 52.5 -84t68.5 -69.5t98 -51.5t127 -18q166 0 284 137.5t118 333.5q0 105 -51.5 165.5t-161.5 60.5q-109 0 -252 -70l18 94l588 459v4q-64 -21 -139.5 -24t-137.5 0.5t-127.5 -1t-132.5 -38.5t-129 -103l-41 -45h-36l79 365h41l19 -43 q41 20 109 34.5t122 14.5q72 0 146 -22t138.5 -44t113.5 -22h28l60 61q31 -4 53.5 -28.5t24.5 -53.5l-687 -506l-2 -4q111 47 203 47q84 0 148 -28t101 -76t55 -106.5t18 -125.5q0 -147 -79.5 -285t-218 -226.5t-296.5 -88.5q-164 0 -259 95.5t-114 271.5z" />
<glyph unicode="4" horiz-adv-x="1089" d="M12 422l6 35q266 266 437.5 497t318.5 500h217q-153 -254 -364 -481t-504 -465l-2 -4h448l49 254l179 184h37l-86 -438h247l-14 -82h-248l-45 -277l55 -88h144l-10 -57h-650l11 57h151l111 88l55 277h-543z" />
<glyph unicode="5" horiz-adv-x="1120" d="M27 340l51 20q50 -98 140.5 -160.5t225.5 -62.5q86 0 163 42t129.5 109.5t83 152.5t30.5 171q0 116 -75.5 201.5t-203.5 85.5q-104 0 -197 -60.5t-159 -170.5h-61l278 786l70 27q45 -50 133 -83.5t188 -33.5q185 0 299 57l21 -20q-77 -80 -206.5 -122t-287.5 -42h-182 l-184 -391h4q153 129 342 129q96 0 168.5 -29t115 -81t63.5 -116.5t21 -140.5q0 -114 -45 -228t-122 -204t-190.5 -146.5t-240.5 -56.5q-164 0 -258.5 95.5t-113.5 271.5z" />
<glyph unicode="6" horiz-adv-x="1128" d="M74 389q0 138 56.5 282t153.5 268.5t221 233t263 187.5t276 121l-10 -58q-181 -58 -363.5 -224.5t-283.5 -373.5h4q48 37 122 59.5t153 22.5q175 0 266.5 -90.5t91.5 -257.5q0 -147 -71.5 -281t-201.5 -219.5t-286 -85.5q-188 0 -289.5 117.5t-101.5 298.5zM272 352 q0 -136 53 -223.5t158 -87.5q69 0 126 31.5t93.5 82t62 117t36 133t10.5 132.5q0 132 -51.5 217.5t-159.5 85.5q-84 0 -150 -46.5t-103 -121.5t-56 -156.5t-19 -163.5z" />
<glyph unicode="7" horiz-adv-x="1052" d="M137 0q44 171 138.5 360t216 360.5t255.5 323t269 271.5v4q-77 -28 -166.5 -33.5t-163.5 0t-149 3.5t-148 -33.5t-135 -100.5l-41 -45h-37l76 365h41l22 -37q42 18 108 30.5t120 12.5q85 0 169.5 -22t162.5 -44t147 -22h39l49 61q32 -5 52.5 -23.5t21.5 -46.5 q-685 -675 -801 -1384h-246z" />
<glyph unicode="8" horiz-adv-x="1126" d="M47 250q0 80 36.5 157.5t99 140.5t132.5 113t148 89q-105 97 -154 171t-49 164q0 115 70 207.5t178.5 140.5t228.5 48q93 0 162.5 -21t108 -57t57 -77.5t18.5 -88.5q0 -232 -389 -422q67 -55 113 -99t88 -95.5t63 -105t21 -109.5q0 -83 -49.5 -163.5t-128.5 -139 t-181 -94.5t-202 -36q-161 0 -266 74.5t-105 202.5zM246 293q0 -107 60.5 -176.5t178.5 -69.5q120 0 219 92.5t99 210.5q0 42 -19.5 83.5t-58 82t-72 70.5t-85.5 72t-76 63q-108 -69 -177 -184t-69 -244zM426 1178q0 -126 122 -241q32 -31 114 -95q106 62 169.5 162.5 t63.5 189.5q0 37 -9.5 72.5t-30 70t-60.5 55.5t-95 21q-113 0 -193.5 -60.5t-80.5 -174.5z" />
<glyph unicode="9" horiz-adv-x="1130" d="M133 -27l10 58q179 54 363.5 223.5t284.5 374.5h-5q-44 -37 -119.5 -59.5t-154.5 -22.5q-175 0 -266.5 90.5t-91.5 257.5q0 147 71.5 281t201.5 219.5t286 85.5q188 0 289.5 -117.5t101.5 -298.5q0 -172 -87.5 -350.5t-227 -322.5t-312 -255.5t-344.5 -163.5zM367 918 q0 -132 51.5 -218t159.5 -86q68 0 124.5 31t93 81.5t62 115.5t36.5 130.5t11 129.5q0 136 -53 223.5t-158 87.5q-69 0 -126 -31.5t-93.5 -82t-61.5 -116.5t-35.5 -132.5t-10.5 -132.5z" />
<glyph unicode=":" horiz-adv-x="573" d="M57 113q0 60 40 99.5t100 39.5t99.5 -39.5t39.5 -99.5t-39.5 -100t-99.5 -40t-100 40t-40 100zM272 891q0 60 40 99.5t100 39.5t99.5 -39.5t39.5 -99.5t-39.5 -99.5t-99.5 -39.5t-100 39.5t-40 99.5z" />
<glyph unicode=";" horiz-adv-x="587" d="M-43 -246q74 29 149 89t105 130q-74 1 -109.5 40t-35.5 100t41 100t108 39q61 0 96 -36.5t35 -104.5q0 -56 -35 -119t-89.5 -117t-120 -97.5t-128.5 -66.5zM281 891q0 60 39.5 99.5t99.5 39.5t99.5 -39.5t39.5 -99.5t-39.5 -99.5t-99.5 -39.5t-99.5 39.5t-39.5 99.5z" />
<glyph unicode="&#x3c;" horiz-adv-x="1044" d="M53 514l21 100l950 473l-25 -122l-823 -402l668 -405l-23 -115z" />
<glyph unicode="=" horiz-adv-x="1308" d="M90 301l19 94h1007l-18 -94h-1008zM178 750l19 94h1007l-18 -94h-1008z" />
<glyph unicode="&#x3e;" horiz-adv-x="1040" d="M6 43l25 123l823 401l-668 406l23 114l768 -471l-21 -100z" />
<glyph unicode="?" horiz-adv-x="921" d="M10 113q0 60 40 99.5t100 39.5t99.5 -39.5t39.5 -99.5t-39.5 -100t-99.5 -40t-100 40t-40 100zM250 1128q0 97 77.5 180t194.5 128t238 45q120 0 180.5 -38t60.5 -106q0 -45 -18.5 -98.5t-42.5 -100t-74 -113.5t-84.5 -110t-105 -119t-104.5 -110.5t-112 -114.5 q-10 -10 -15 -15.5t-13.5 -14l-15.5 -15.5l-115 -118l-31 22q72 84 106.5 124.5t94 112t87.5 108.5t72 96.5t65 96.5t48 87t38.5 88t20.5 80.5t9 83.5q0 55 -30 87.5t-83 32.5q-62 0 -120 -52t-93.5 -133t-35.5 -163v-47h-175q-24 39 -24 96z" />
<glyph unicode="@" horiz-adv-x="1630" d="M80 342q0 130 48.5 262t136 244.5t200.5 200.5t251.5 138t278.5 50q133 0 239.5 -39t171 -104t98.5 -144t34 -164q0 -114 -40.5 -234.5t-109.5 -222t-153 -183t-178.5 -127.5t-179.5 -46q-43 0 -43 52q0 67 75 243l88 207h-4q-66 -109 -117 -183.5t-119 -155t-136 -122 t-134 -41.5q-127 0 -127 166q0 102 47.5 227t125.5 239.5t169.5 211.5t188 155t172.5 58q34 0 61.5 -11t35.5 -18.5t30 -29.5l78 53h20l-217 -686q-43 -123 -43 -242q176 70 306 271t130 411q0 79 -28.5 148.5t-84.5 126.5t-150.5 90t-215.5 33q-155 0 -308.5 -68t-271 -180 t-191 -265.5t-73.5 -314.5q0 -195 115 -348h-80q-96 146 -96 342zM535 248q0 -125 83 -125q53 0 147.5 113.5t185 282t132.5 315.5q-13 16 -36 32q-55 35 -105 35q-64 0 -139 -70t-132.5 -170.5t-96.5 -214.5t-39 -198z" />
<glyph unicode="A" d="M-45 0l8 37l973 1390v109h176v-1393l102 -106l-8 -37h-510l15 57h141l84 86v432h-481l-271 -391l68 -127h168l-14 -57h-451zM510 657h426v613z" />
<glyph unicode="B" horiz-adv-x="1302" d="M16 0l13 57h123l96 86l231 1168l-63 86h-125l12 57h569q81 0 141 -5t118.5 -20t95.5 -41t59.5 -70t22.5 -104q0 -88 -33 -163.5t-87.5 -127t-118 -84.5t-130.5 -46l2 -5q44 -3 82.5 -12.5t76.5 -30t65.5 -49.5t44 -73.5t16.5 -100.5q0 -116 -54.5 -215.5t-144 -165.5 t-205.5 -103.5t-239 -37.5h-568zM422 121q88 -37 244 -37q92 0 172 46t131 136.5t51 208.5q0 111 -88.5 179.5t-235.5 68.5h-153zM559 805h154q56 0 110 12t106 40.5t91 70t62.5 105t23.5 141.5q0 93 -70 145.5t-172 52.5q-57 0 -114.5 -10.5t-83.5 -22.5z" />
<glyph unicode="C" horiz-adv-x="1406" d="M158 524q0 135 37 263t100 232t149 191.5t183.5 146.5t203 91.5t207.5 32.5q90 0 160.5 -16t98.5 -30t63 -38l65 76h62l-86 -443h-62l-10 33q-13 43 -24 73t-28.5 68.5t-36 64.5t-46.5 53t-60 43t-76.5 26t-96.5 10q-110 0 -222.5 -63.5t-200.5 -166t-144 -242.5 t-56 -284q0 -96 23 -184t67.5 -162t119.5 -118t171 -44q176 0 328.5 77.5t259.5 211.5l53 -20q-41 -66 -109 -137t-157.5 -139.5t-202 -112.5t-221.5 -44q-116 0 -207 33t-147 86.5t-92.5 127.5t-51 148t-14.5 156z" />
<glyph unicode="D" horiz-adv-x="1495" d="M16 0l13 57h123l98 86l229 1168l-63 86h-125l12 57h559q144 0 256.5 -31.5t181.5 -81t114 -118t62 -136t17 -141.5q0 -140 -41 -278t-121 -258t-187.5 -212t-250.5 -145t-301 -53h-576zM428 150q32 -12 82 -23q77 -23 164 -23q107 0 197 36.5t152 94.5t110.5 136 t77.5 156t47.5 159t25 140.5t6.5 105.5q0 63 -11.5 122t-41 118t-73.5 102.5t-115 70.5t-160 27q-62 0 -148 -16l-75 -17z" />
<glyph unicode="E" horiz-adv-x="1282" d="M18 0l13 57h102l117 86l231 1168l-63 86h-125l12 57h1045l-70 -348h-37l-74 266h-495l-111 -559h314l153 246h37l-113 -574h-36l-58 246h-313l-129 -649h512l256 287h37l-144 -369h-1061z" />
<glyph unicode="F" horiz-adv-x="1185" d="M16 0l13 57h123l96 86l231 1168l-63 86h-125l12 57h1045l-70 -348h-37l-74 266h-495l-111 -559h313l154 246h37l-113 -574h-37l-57 246h-313l-117 -588l68 -86h223l-10 -57h-693z" />
<glyph unicode="G" horiz-adv-x="1488" d="M158 524q0 135 37 263t100 232t149 191.5t183.5 146.5t203 91.5t207.5 32.5q90 0 160.5 -16t98.5 -30t63 -38l65 76h62l-86 -443h-62l-10 33q-13 43 -24 73t-28.5 68.5t-36 64.5t-46.5 53t-60 43t-76.5 26t-96.5 10q-110 0 -222.5 -63.5t-200.5 -166t-144 -242.5 t-56 -284q0 -96 23 -184t67.5 -162t119.5 -118t171 -44q243 0 438 146l68 274l-70 70h-172l14 53h463l-186 -698h-62l-71 184q-243 -193 -471 -193q-116 0 -207 33t-147 86.5t-92.5 127.5t-51 148t-14.5 156z" />
<glyph unicode="H" horiz-adv-x="1576" d="M16 0l13 57h123l96 86l231 1168l-63 86h-125l12 57h647l-12 -57h-184l-95 -86l-98 -486h645l99 486l-64 86h-182l12 57h647l-12 -57h-127l-94 -86l-232 -1168l62 -86h127l-10 -57h-648l11 57h182l96 86l119 600h-645l-119 -600l61 -86h185l-10 -57h-648z" />
<glyph unicode="I" horiz-adv-x="749" d="M25 0l12 57h113l96 86l231 1168l-63 86h-115l12 57h570l-13 -57h-116l-95 -86l-231 -1168l61 -86h117l-10 -57h-569z" />
<glyph unicode="J" horiz-adv-x="890" d="M-23 135l207 64q3 -152 111 -152q63 0 98 53.5t60 169.5l206 1041l-67 86h-225l12 57h643l-12 -57h-74l-96 -86l-187 -940q-35 -180 -144 -289t-278 -109q-59 0 -116.5 19.5t-97.5 57.5t-40 85z" />
<glyph unicode="K" horiz-adv-x="1396" d="M16 0l13 57h121l102 88l227 1162l-65 90h-123l12 57h625l-13 -57h-157l-99 -90l-106 -539h4l627 506l18 123h-153l12 57h459l-9 -37l-790 -622l489 -676l176 -82l-4 -37h-571l10 57h119l16 86l-407 590h-4l-113 -588l62 -88h155l-10 -57h-623z" />
<glyph unicode="L" horiz-adv-x="1171" d="M16 0l13 57h123l96 86l231 1168l-63 86h-125l12 57h668l-13 -57h-204l-95 -86l-231 -1168l49 -61h385l256 287h37l-143 -369h-996z" />
<glyph unicode="M" horiz-adv-x="1875" d="M35 0l12 57h100l107 127l223 1127l-28 86h-140l13 57h333l277 -1180h4l709 1180h380l-12 -57h-174l-53 -66l-236 -1188l66 -86h133l-10 -57h-606l10 57h127l100 86l197 994h-4l-705 -1157h-49l-262 1157h-4l-189 -953l72 -127h162l-10 -57h-543z" />
<glyph unicode="N" horiz-adv-x="1572" d="M39 0l12 57h99l108 129l213 1082l-68 129h-90l13 57h274l598 -1122h4l191 938l-72 127h-139l12 57h520l-12 -57h-96l-113 -127l-256 -1290h-72l-614 1161h-4l-189 -955l72 -129h139l-10 -57h-520z" />
<glyph unicode="O" horiz-adv-x="1560" d="M147 475q0 124 35 250t96.5 236t149 206.5t188.5 165.5t219.5 108.5t237.5 39.5q111 0 200 -33.5t143 -84.5t90 -118.5t49.5 -130t13.5 -123.5q0 -200 -81.5 -389t-212.5 -326t-302 -220t-344 -83q-112 0 -199 32.5t-139 82.5t-85.5 118.5t-46 134t-12.5 134.5zM342 592 q0 -252 104.5 -378t290.5 -126q124 0 239.5 65.5t201 175.5t137 262t51.5 318q0 232 -101 346.5t-296 114.5q-126 0 -242 -64t-200 -169.5t-134.5 -248.5t-50.5 -296z" />
<glyph unicode="P" horiz-adv-x="1224" d="M18 0l13 57h119l100 86l231 1168l-67 86h-121l12 57h563q242 0 350.5 -67.5t108.5 -204.5q0 -110 -54 -210t-140 -169t-195.5 -109.5t-218.5 -40.5h-94l14 72h78q172 0 284.5 116.5t112.5 293.5q0 114 -67.5 175.5t-180.5 61.5q-116 0 -200 -35l-236 -1194l64 -86h225 l-10 -57h-691z" />
<glyph unicode="Q" horiz-adv-x="1560" d="M147 475q0 124 35 250t96.5 236t149 206.5t188.5 165.5t219.5 108.5t237.5 39.5q111 0 200 -33.5t143 -84.5t90 -118.5t49.5 -130t13.5 -123.5q0 -188 -73 -368.5t-192 -314.5t-275.5 -223.5t-319.5 -107.5q121 -108 337 -213t396 -124l-10 -39h-519l-311 374 q-106 3 -188 36.5t-131 83.5t-81 117.5t-43.5 131.5t-11.5 131zM342 592q0 -252 104.5 -378t290.5 -126q124 0 239.5 65.5t201 175.5t137 262t51.5 318q0 232 -101 346.5t-296 114.5q-126 0 -242 -64t-200 -169.5t-134.5 -248.5t-50.5 -296z" />
<glyph unicode="R" horiz-adv-x="1363" d="M16 0l13 57h121l100 88l229 1166l-65 86h-123l12 57h641q111 0 191 -23.5t123 -65t62 -88.5t19 -103q0 -185 -120 -293.5t-359 -173.5l2 -5l58 -38l241 -541l144 -86l-5 -37h-294l-240 549q-45 110 -131 110h-105l-100 -514l64 -88h192l-10 -57h-660zM545 741h172 q33 0 75 11.5t87.5 33.5t88.5 57.5t77.5 79t55.5 102t21 122.5q0 102 -66.5 163.5t-191.5 61.5q-57 0 -135 -16l-63 -17z" />
<glyph unicode="S" horiz-adv-x="1091" d="M45 -18l94 483h62l4 -19q19 -79 53.5 -148.5t83.5 -126t116.5 -89.5t143.5 -33q77 0 127.5 34.5t70 83t19.5 107.5q0 55 -26 111.5t-68 108t-92.5 104.5t-101.5 110t-93 116t-68 131.5t-26 146.5q0 172 125.5 275.5t329.5 103.5q64 0 119.5 -11.5t84.5 -23t72 -33.5 l43 60h60l-84 -431h-62l-8 50q-27 144 -107.5 230.5t-195.5 86.5q-109 0 -168 -59.5t-59 -169.5q0 -59 25.5 -116t66.5 -106t90.5 -99t99 -105t90.5 -114.5t66.5 -137t25.5 -162.5q0 -157 -115 -262t-308 -105q-79 0 -149 13.5t-107.5 28t-82.5 35.5q-9 5 -14 7l-76 -75h-61 z" />
<glyph unicode="T" horiz-adv-x="1318" d="M203 1044l86 437h41l67 -27h961l78 27h41l-86 -437h-37l-82 328h-320l-241 -1227l63 -88h189l-11 -57h-721l11 57h186l102 88l242 1227h-319l-213 -328h-37z" />
<glyph unicode="U" horiz-adv-x="1540" d="M266 1397l13 57h641l-13 -57h-162l-98 -86l-149 -756q-23 -113 -23 -198q0 -99 32 -158q59 -109 257 -109q92 0 171.5 37.5t135.5 103t94.5 148.5t57.5 178l143 713l-72 127h-143l12 57h547l-12 -57h-121l-109 -127l-137 -690q-21 -105 -53 -192.5t-83 -166t-116.5 -132 t-156.5 -85t-199 -31.5q-282 0 -380 140q-62 89 -62 233q0 82 20 182l156 783l-68 86h-123z" />
<glyph unicode="V" d="M295 1417l8 37h510l-14 -57h-142l-84 -86v-1037l746 971l-62 152h-167l14 57h461l-9 -37l-1118 -1444h-41v1338z" />
<glyph unicode="W" horiz-adv-x="2019" d="M291 1417l8 37h520l-14 -57h-152l-84 -86v-1018l529 754v407h383l-23 -57l-184 -258v-856l731 987l-78 127h-168l15 57h460l-8 -37l-1077 -1444h-51v936l-654 -936h-51v1338z" />
<glyph unicode="X" horiz-adv-x="1275" d="M-45 0l6 37l674 694l-258 580l-129 106l8 37h512l-12 -57h-113l-70 -103l197 -432l393 424l-76 111h-126l12 57h457l-9 -37l-616 -631l293 -643l133 -106l-4 -37h-520l10 57h102l72 101l-221 495l-457 -489l82 -107h154l-11 -57h-483z" />
<glyph unicode="Y" horiz-adv-x="1241" d="M215 1417l8 37h600l-12 -57h-193l-81 -86l241 -535h4l443 535l-64 86h-153l12 57h420l-8 -37l-619 -723l-108 -551l79 -86h152l-10 -57h-688l10 57h149l117 86l111 545l-287 623z" />
<glyph unicode="Z" horiz-adv-x="1136" d="M16 0v57l996 1311v4h-410l-262 -328h-37l66 437h41l67 -27h780l3 -57l-1004 -1311v-4h473l248 328h37l-60 -410h-938z" />
<glyph unicode="[" horiz-adv-x="651" d="M133 -57l305 1568h379l-10 -57h-285l-282 -1454h284l-12 -57h-379z" />
<glyph unicode="\" horiz-adv-x="892" d="M207 1454h94l430 -1454h-94z" />
<glyph unicode="]" horiz-adv-x="651" d="M-12 -57l10 57h285l282 1454h-284l12 57h379l-305 -1568h-379z" />
<glyph unicode="^" horiz-adv-x="1009" d="M123 621l346 858h123l348 -858h-121l-289 776l-284 -776h-123z" />
<glyph unicode="_" horiz-adv-x="1310" d="M-27 -174h1008v-94h-1008v94z" />
<glyph unicode="`" horiz-adv-x="450" d="M14 1372l105 82q149 -165 315 -270l-22 -31q-209 84 -398 219z" />
<glyph unicode="a" horiz-adv-x="966" d="M14 139q0 102 47.5 227t125.5 239.5t169.5 211.5t188 155t172.5 58q34 0 61.5 -11t35.5 -18.5t30 -29.5l78 53h20l-217 -686q-49 -140 -49 -215q54 34 98 78.5t96 113.5l35 -32q-100 -138 -200.5 -224t-174.5 -86q-43 0 -43 52q0 65 76 243l88 207h-4 q-66 -109 -117 -183.5t-119 -155t-136 -122t-134 -41.5q-127 0 -127 166zM188 248q0 -59 21 -92t63 -33q53 0 147.5 113.5t185 282t132.5 315.5q-11 14 -37 32q-55 35 -104 35q-85 0 -183 -115.5t-161.5 -269.5t-63.5 -268z" />
<glyph unicode="b" horiz-adv-x="942" d="M57 86l344 1245l-55 66h-137l16 57l367 21l-268 -947h4q66 109 117 183.5t119 155t136 122t134 41.5q127 0 127 -166q0 -86 -31.5 -188t-84 -199.5t-123.5 -189.5t-147.5 -161t-160 -111t-156.5 -42q-104 0 -201 113zM238 170q14 -19 36 -35q52 -33 105 -33 q63 0 126.5 45.5t112.5 118.5t88 159.5t59.5 174t20.5 156.5q0 59 -21 92t-63 33q-53 0 -147.5 -113.5t-184.5 -282t-132 -315.5z" />
<glyph unicode="c" horiz-adv-x="841" d="M20 143q0 96 39.5 216t110 236.5t158 215t194 159t207.5 60.5q86 0 119 -35t33 -94q0 -82 -76 -162h-127v107q0 78 -68 78q-73 0 -146.5 -65.5t-126.5 -163.5t-86.5 -214t-33.5 -215q0 -157 105 -157q75 0 177 60t197 167l31 -23q-111 -148 -260 -244t-291 -96 q-75 0 -115.5 47.5t-40.5 122.5z" />
<glyph unicode="d" horiz-adv-x="976" d="M18 139q0 86 31.5 188t84 199.5t123.5 189.5t147.5 161t160 111t156.5 42q30 0 63 -10l88 311l-55 66h-137l16 57l367 21l-336 -1125q-37 -124 -37 -227q54 34 99 79t96 113l35 -32q-98 -136 -203.5 -223t-181.5 -87q-43 0 -43 52q0 67 75 243l88 207h-4 q-66 -109 -117 -183.5t-119 -155t-136 -122t-134 -41.5q-127 0 -127 166zM193 248q0 -125 83 -125q53 0 147.5 113.5t185 282t132.5 315.5q-13 16 -36 32q-55 35 -105 35q-63 0 -126.5 -45.5t-112.5 -118t-88 -159.5t-59.5 -174t-20.5 -156z" />
<glyph unicode="e" horiz-adv-x="829" d="M20 143q0 96 39.5 216t110 236.5t158 215t194 159t207.5 60.5q63 0 101 -31t38 -90q0 -94 -94 -192.5t-239 -163.5t-285 -68q-33 -109 -33 -219q0 -157 105 -157q75 0 177 60t197 167l31 -23q-111 -148 -260 -244t-291 -96q-75 0 -115.5 47.5t-40.5 122.5zM266 535h25 q71 0 147 32.5t132 80t92 103t36 101.5q0 28 -21 50t-67 22q-100 0 -193 -112.5t-151 -276.5z" />
<glyph unicode="f" horiz-adv-x="608" d="M-379 -305q0 63 37 92h147v-29q0 -110 84 -110q49 0 98.5 82t92.5 243l256 951l-160 32l14 48h168q69 220 183 348.5t264 128.5q93 0 138.5 -33t45.5 -88q0 -63 -37 -92h-147v28q0 111 -70 111q-105 0 -194 -311l-27 -92h229l-20 -68h-227l-226 -797q-36 -125 -81 -225 t-102 -177.5t-129 -120t-153 -42.5q-93 0 -138.5 33t-45.5 88z" />
<glyph unicode="g" horiz-adv-x="929" d="M-121 -297q0 140 221 297q-45 0 -79.5 26.5t-34.5 73.5q0 23 11.5 48t34 50.5t39 41.5t42.5 39l104 81q-51 51 -51 150q0 104 50 202t127.5 166.5t172 110t182.5 41.5q72 0 117 -26h232v-56l-168 -28q12 -34 12 -80q0 -49 -27 -116.5t-78 -138.5t-115 -131.5t-147 -99.5 t-166 -39q-60 0 -100 19q-104 -68 -104 -131q0 -27 30 -37t90 -10h306q81 0 113 -31.5t32 -93.5q0 -99 -99.5 -208t-242 -179t-264.5 -70q-120 0 -180 33.5t-60 95.5zM29 -217q0 -53 50 -80t118 -27q62 0 126 16t121 46t93 79.5t36 110.5q0 29 -20.5 50.5t-65.5 21.5h-323 q-71 -52 -103 -97t-32 -120zM344 530q0 -62 26.5 -102.5t67.5 -40.5q69 0 137.5 71.5t109 168t40.5 174.5q0 80 -26.5 125t-75.5 45q-65 0 -130.5 -65.5t-107 -169t-41.5 -206.5z" />
<glyph unicode="h" horiz-adv-x="1097" d="M39 0l364 1331l-55 66h-137l16 57l377 21l-293 -955h4q62 95 132 180.5t150.5 162t166 122t160.5 45.5q68 0 106.5 -36t38.5 -87q0 -75 -57 -192l-211 -408q-62 -121 -62 -182q59 25 112.5 66t127.5 120l31 -32q-112 -132 -233.5 -219t-192.5 -87q-43 0 -43 52 q0 57 92 245l190 383q2 4 14.5 33.5t19 46.5t13.5 41t7 39q0 34 -19 51t-51 17q-92 0 -204.5 -98t-217.5 -248q-65 -96 -110 -218t-80 -317h-156z" />
<glyph unicode="i" horiz-adv-x="561" d="M76 25q0 59 67 258l207 598l-55 65h-137l16 58l377 20l-238 -686q-49 -140 -49 -215q54 34 99 79t96 113l37 -32q-100 -138 -201 -224t-176 -86q-43 0 -43 52zM420 1329q0 54 35.5 89.5t89.5 35.5t89.5 -35.5t35.5 -89.5t-35.5 -89.5t-89.5 -35.5t-89.5 35.5t-35.5 89.5z " />
<glyph unicode="j" horiz-adv-x="534" d="M-354 -305q0 63 37 92h147v-29q0 -110 84 -110q49 0 98 81.5t92 243.5l244 901l-57 74h-162l12 56l406 20l-252 -885q-36 -125 -81 -225t-102 -177.5t-129 -120t-153 -42.5q-93 0 -138.5 33t-45.5 88zM401 1329q0 54 35.5 89.5t89.5 35.5t89.5 -35.5t35.5 -89.5 t-35.5 -89.5t-89.5 -35.5t-89.5 35.5t-35.5 89.5z" />
<glyph unicode="k" horiz-adv-x="972" d="M39 0l364 1331l-55 66h-137l16 57l377 21l-293 -955h4q129 230 279 370t258 140q133 0 133 -143q0 -61 -34.5 -127t-88.5 -121.5t-118 -103t-126 -78.5t-110 -41q19 -76 57.5 -159.5t89.5 -145.5q9 5 17 11t14.5 11t15.5 13t14 12.5t15.5 15.5t15 16t17.5 19t18 20 t20.5 24t22.5 26l31 -31q-65 -97 -145 -182.5t-129 -85.5q-45 0 -121.5 151.5t-118.5 321.5q-119 -244 -147 -453h-156zM369 506q37 -37 102 -37q67 0 146.5 58t133.5 138.5t54 143.5q0 40 -15 56t-47 16q-50 0 -150 -96t-214 -261q0 -4 -2 -6q-1 -3 -4 -6t-4 -6z" />
<glyph unicode="l" horiz-adv-x="542" d="M63 35q0 52 31 170l316 1126l-56 66h-137l16 57l367 21l-303 -1065q-50 -186 -50 -264q0 -13 1 -23q110 66 205 192l34 -32q-100 -139 -200 -224.5t-174 -85.5q-21 0 -35.5 17t-14.5 45z" />
<glyph unicode="m" horiz-adv-x="1634" d="M47 0l307 881l-55 65h-137l16 58l377 20l-190 -492h4q11 15 42.5 58.5t48 65.5t49.5 64.5t54 67.5t54 62t58 59t57.5 48t60 40t58.5 23.5t60 9.5q72 0 98.5 -25.5t26.5 -72.5q0 -44 -31 -132.5t-108 -267.5h4q16 21 53.5 73.5t60 83.5t62.5 81.5t70 81.5t72 68.5t79 59 t81 36t87 14.5q68 0 104 -36t36 -87q0 -73 -58 -192l-211 -408q-61 -113 -61 -182q59 25 112.5 66t127.5 120l30 -32q-112 -132 -233.5 -219t-192.5 -87q-43 0 -43 52q0 57 92 245l191 383q2 6 11 27t14.5 35t13 33.5t11 36t3.5 28.5q0 34 -19 51t-51 17q-74 0 -162 -82.5 t-212 -253.5q-65 -91 -115.5 -216.5t-97.5 -328.5h-176l249 684q3 8 11 30.5t12 34.5t8 30.5t4 33.5q0 68 -63 68q-57 0 -158.5 -99.5t-208.5 -246.5q-132 -173 -231 -535h-156z" />
<glyph unicode="n" horiz-adv-x="1132" d="M47 0l307 881l-55 65h-137l16 58l377 20l-190 -492h4q46 68 96.5 132t114.5 132t126 118.5t131 83t128 32.5q68 0 103.5 -36t35.5 -87q0 -75 -57 -192l-211 -408q-62 -114 -62 -182q59 25 112.5 66t127.5 120l30 -32q-112 -132 -233.5 -219t-192.5 -87q-43 0 -43 52 q0 55 93 245l190 383q2 6 11 27t14.5 35t13 33.5t11 36t3.5 28.5q0 68 -69 68q-81 0 -190 -96t-218 -250q-60 -84 -110.5 -203t-120.5 -332h-156z" />
<glyph unicode="o" horiz-adv-x="870" d="M18 143q0 92 38 210.5t108 236t157 217t196 161.5t214 62q74 0 115 -45.5t41 -124.5q0 -92 -38 -210.5t-108 -236t-157 -217t-196 -161.5t-214 -62q-74 0 -115 45.5t-41 124.5zM215 266q0 -80 24 -118.5t80 -38.5q76 0 151 69t126.5 170t84 214.5t32.5 203.5 q0 80 -24.5 119t-80.5 39q-100 0 -194 -116t-146.5 -268t-52.5 -274z" />
<glyph unicode="p" horiz-adv-x="985" d="M-207 -399l19 57h145l59 66l328 1157l-55 65h-137l16 58l367 26l-170 -502h6q66 109 117 183.5t119 155t136 122t134 41.5q127 0 127 -166q0 -86 -31.5 -188t-84 -199.5t-123.5 -189.5t-147.5 -161t-160 -111t-156.5 -42q-26 0 -63 11l-72 -260l57 -66h129l-18 -57h-541z M281 170q14 -19 36 -35q52 -33 105 -33q63 0 126.5 45.5t112.5 118.5t88 159.5t59.5 174t20.5 156.5q0 59 -21 92t-63 33q-53 0 -147.5 -113.5t-184.5 -282t-132 -315.5z" />
<glyph unicode="q" horiz-adv-x="937" d="M18 139q0 86 31.5 188t84 199.5t123.5 189.5t147.5 161t160 111t156.5 42q34 0 62.5 -10t43 -21t31.5 -28l78 53h20l-387 -1300l58 -66h129l-19 -57h-540l18 57h145l60 66l235 751h-4q-66 -109 -117 -183.5t-119 -155t-136 -122t-134 -41.5q-127 0 -127 166zM193 248 q0 -125 83 -125q53 0 147.5 113.5t185 282t132.5 315.5q-13 16 -36 32q-55 35 -105 35q-63 0 -126.5 -45.5t-112.5 -118t-88 -159.5t-59.5 -174t-20.5 -156z" />
<glyph unicode="r" horiz-adv-x="770" d="M47 0l307 881l-55 65h-137l16 58l361 20l-205 -518h10q285 520 467 520q70 0 102 -45l-84 -176h-6q-51 33 -104 33q-62 0 -140.5 -81.5t-149.5 -206t-131.5 -271t-94.5 -279.5h-156z" />
<glyph unicode="s" horiz-adv-x="724" d="M-37 82l90 221h39l2 -14q16 -114 73 -171t126 -57q60 0 92.5 35t32.5 101q0 55 -20 109.5t-48 99t-56.5 89t-48.5 98t-20 107.5q0 150 91.5 240t224.5 90q67 0 120.5 -18t114.5 -60l-106 -260h-41v10q0 254 -137 254q-53 0 -88 -41t-35 -102q0 -50 19.5 -100t47.5 -93.5 t56 -88t47.5 -101.5t19.5 -117q0 -157 -88 -248.5t-256 -91.5q-137 0 -252 109z" />
<glyph unicode="t" horiz-adv-x="606" d="M66 25q0 33 22.5 123t48.5 165l207 611l-162 32l15 48h155l197 270h43l-82 -270h221l-20 -68h-219l-189 -598q-49 -148 -49 -215q43 21 80 48.5t61.5 51t93.5 92.5l31 -32q-100 -126 -218 -218t-193 -92q-43 0 -43 52z" />
<glyph unicode="u" horiz-adv-x="1097" d="M70 90q0 45 24.5 127.5t48.5 132.5l230 531l-56 65h-137l17 58l376 20l-274 -674q-49 -121 -49 -160q0 -67 69 -67q64 0 154.5 90.5t212.5 255.5q62 86 120.5 229t100.5 306l168 10l-244 -690q-43 -118 -43 -199q59 25 112.5 66t127.5 120l31 -32q-116 -136 -227.5 -221 t-180.5 -85q-43 0 -43 52q0 74 68 245l80 201h-4q-44 -65 -76.5 -110t-82.5 -109.5t-94.5 -108.5t-96 -86t-103.5 -63t-102 -21q-66 0 -96.5 34.5t-30.5 82.5z" />
<glyph unicode="v" horiz-adv-x="878" d="M139 946l17 58l317 16l-113 -846h5q114 126 174.5 196.5t123 154t88 143t25.5 112.5q0 33 -19 50.5t-46 17.5h-39l22 156q56 26 125 26q48 0 81.5 -32t33.5 -99q0 -44 -18.5 -96.5t-44.5 -101.5t-80.5 -120.5t-100 -126t-131.5 -146.5t-145.5 -153.5t-169.5 -174.5h-51 l102 901l-59 65h-97z" />
<glyph unicode="w" horiz-adv-x="1310" d="M139 946l17 58l317 16l-113 -846h5q246 275 325 391l53 453q35 12 76 12q48 0 81.5 -32t33.5 -99q0 -87 -74 -213l-67 -512h4q114 126 174.5 196.5t123 154t88 143t25.5 112.5q0 33 -19 50.5t-46 17.5h-39l22 156q56 26 125 26q48 0 81.5 -32t33.5 -99q0 -44 -18.5 -96.5 t-44.5 -101.5t-80.5 -120.5t-100 -126t-131.5 -146.5t-145.5 -153.5t-169.5 -174.5h-51l51 460q-159 -183 -432 -460h-51l102 901l-59 65h-97z" />
<glyph unicode="x" horiz-adv-x="1017" d="M-59 94q0 74 67 144h101v-15q0 -78 55 -78q29 0 76 57t152 204q32 46 50 71l-59 404l-55 65h-138l17 58l315 20l60 -416q20 29 60.5 89t61 89.5t54.5 76t56.5 70t50.5 49.5t53 37t49 11q129 0 129 -121q0 -72 -68 -143h-100v27q0 35 -11.5 50t-44.5 15q-29 0 -86 -66.5 t-194 -250.5l49 -330q6 -44 16.5 -70.5t32.5 -50.5q14 6 30.5 19t28 24t31 33.5t27 32.5t28.5 37t25 32l37 -30q-6 -7 -17 -22q-40 -52 -60.5 -77.5t-54.5 -63.5t-57.5 -56t-53.5 -32t-58 -14q-77 0 -94 113l-49 324q-23 -33 -62.5 -91t-62 -91t-56.5 -79.5t-58.5 -72.5 t-53.5 -52.5t-55.5 -38.5t-51.5 -12q-60 0 -86 34.5t-26 86.5z" />
<glyph unicode="y" horiz-adv-x="923" d="M-375 -305q0 72 68 143h133v-51q0 -38 23 -59t53 -21q60 0 133 48t117 134q30 59 54 168.5t36 208.5t34 297t37 318l-59 65h-96l16 58l318 16q-67 -488 -102 -682.5t-73 -304.5h5q493 556 493 747q0 68 -72 68h-53l23 156q58 26 125 26q49 0 88 -33.5t39 -97.5 q0 -267 -625 -919q-215 -228 -339 -317t-243 -89q-62 0 -97.5 36.5t-35.5 84.5z" />
<glyph unicode="z" horiz-adv-x="901" d="M-88 -20l879 866v4h-461l-123 -160h-41l110 314h711v-58l-813 -786q55 -25 98.5 -75t69 -102t48 -101t47.5 -80t55 -31q50 0 73 47.5t23 107.5v74h141q18 -18 25.5 -35.5t7.5 -46.5q0 -63 -81 -132t-194 -69q-65 0 -122.5 29t-98 70.5t-77 83.5t-75.5 71t-77 29l-103 -41 z" />
<glyph unicode="{" horiz-adv-x="718" d="M78 463l26 133q85 4 135.5 65t75.5 185l66 342q19 98 58 169t89 106.5t98 51t99 15.5q91 0 154 -29l-25 -47q-74 19 -106 19q-54 0 -99.5 -31.5t-75.5 -81.5t-48.5 -101.5t-28.5 -103.5l-66 -342q-12 -58 -37 -106t-52.5 -77t-59 -50.5t-53.5 -30t-40 -12.5l-2 -11 q16 -4 34 -13.5t42 -31t38.5 -52.5t23 -77.5t-4.5 -107.5l-67 -344q-12 -52 -13 -104.5t9.5 -102.5t44.5 -81.5t88 -31.5q49 0 113 21l6 -50q-73 -28 -166 -28q-32 0 -61 6.5t-59 21.5t-50.5 40.5t-35.5 63.5t-15 90t12 120l68 346q24 125 -3 186.5t-112 65.5z" />
<glyph unicode="|" horiz-adv-x="524" d="M143 0l283 1454h109l-283 -1454h-109z" />
<glyph unicode="}" horiz-adv-x="716" d="M-113 -449l25 48q74 -19 106 -19q55 0 100.5 31t74.5 82.5t47 100.5t30 104l66 342q11 59 35.5 107t52 77t59.5 50t54.5 29.5t40.5 12.5l2 10q-17 4 -35 14t-43 31.5t-39 52t-22.5 77.5t5.5 108l68 344q10 54 11 104.5t-9 102t-43 82.5t-88 31q-49 0 -113 -21l-6 49 q76 29 166 29q39 0 73.5 -9.5t68 -32.5t52.5 -62t26 -98t-11 -140l-68 -346q-24 -125 3 -186.5t112 -65.5l-26 -133q-85 -4 -135.5 -65t-75.5 -185l-66 -342q-15 -79 -44.5 -141t-64.5 -99t-77.5 -61t-80.5 -32.5t-77 -8.5q-93 0 -154 28z" />
<glyph unicode="~" horiz-adv-x="1312" d="M143 582q174 92 312 92q70 0 200.5 -42t204.5 -42q68 0 128.5 16.5t137.5 57.5l35 -78q-163 -94 -321 -94q-70 0 -200 43t-200 43q-117 0 -264 -72q-22 43 -33 76z" />
<glyph unicode="&#xa1;" horiz-adv-x="579" d="M63 -27l121 449l236 600h45l-86 -600l-121 -449h-195zM391 1315q0 60 39.5 99.5t99.5 39.5t100 -39.5t40 -99.5t-40 -99.5t-100 -39.5t-99.5 39.5t-39.5 99.5z" />
<glyph unicode="&#xa2;" horiz-adv-x="1069" d="M45 289q0 157 82 313t218 266.5t288 145.5l29 92h96l-25 -78q4 0 12.5 1t12.5 1q107 0 198 -47l50 39h51l-117 -340h-61v33q-5 130 -41 186t-125 60l-269 -852q206 0 414 251l41 -20q-222 -340 -496 -365l-24 -77h-96l24 79q-130 17 -196 100.5t-66 211.5zM209 389 q0 -214 143 -266l258 823q-161 -45 -281 -209.5t-120 -347.5z" />
<glyph unicode="&#xa3;" horiz-adv-x="1251" d="M-2 0l18 96q47 22 84.5 59.5t76.5 106t73.5 180t64.5 267.5h-174l19 94h174l47 241q37 197 172 316t330 119q72 0 132.5 -14t109 -42.5t75.5 -77t27 -112.5q0 -66 -33 -133h-213l2 147q1 86 -41 119t-127 33q-46 0 -82.5 -18t-60.5 -45.5t-43.5 -72t-31 -86t-22.5 -98.5 l-53 -276h418l-18 -94h-416q-35 -181 -62.5 -269t-69.5 -148.5t-128 -137.5l10 -13q60 58 131 84.5t129 26.5q81 0 170 -59q30 -20 46.5 -29.5t42.5 -18t52 -8.5q49 0 96 19t75 40t65 56l31 -27q-73 -104 -176 -178t-173 -74q-48 0 -81 13t-70 39q-43 28 -77.5 41.5 t-84.5 13.5q-67 0 -145.5 -22t-132.5 -58h-156z" />
<glyph unicode="&#xa4;" horiz-adv-x="1208" d="M199 315l125 125q-84 104 -84 240q0 132 82 238l-123 124l59 58l123 -123q104 84 240 84q138 0 239 -84l123 123l59 -58l-124 -124q83 -100 83 -238q0 -137 -83 -240l124 -125l-57 -59l-127 125q-106 -82 -237 -82q-134 0 -240 82l-125 -125zM354 680q0 -113 77.5 -193.5 t189.5 -80.5t189 80.5t77 193.5t-77 193.5t-189 80.5t-189.5 -80.5t-77.5 -193.5z" />
<glyph unicode="&#xa5;" horiz-adv-x="1382" d="M217 1417l8 37h600l-12 -57h-192l-82 -86l241 -535h4l443 535l-64 86h-153l12 57h420l-8 -37l-527 -614h336l-18 -94h-398l-12 -15l-35 -176h418l-18 -94h-418l-55 -281l79 -86h152l-10 -57h-688l10 57h149l117 86l57 281h-340l19 94h340l35 170l-11 21h-337l18 94h276 l-233 508z" />
<glyph unicode="&#xa6;" horiz-adv-x="534" d="M150 0l112 594h109l-113 -594h-108zM317 860l115 594h109l-115 -594h-109z" />
<glyph unicode="&#xa7;" horiz-adv-x="1228" d="M-100 -418l94 484h61l4 -19q26 -106 77.5 -193.5t135.5 -145.5t185 -58q77 0 127.5 34.5t70 83t19.5 107.5q0 55 -26 111.5t-68 107.5t-93 104.5t-101.5 110.5t-92.5 115.5t-68 131t-26 146.5q0 124 64.5 213t182.5 132q-2 18 -2 55q0 172 125.5 275.5t329.5 103.5 q64 0 119.5 -11.5t85 -23.5t72.5 -33l43 60h59l-84 -431h-61l-9 50q-27 144 -107.5 230.5t-195.5 86.5q-109 0 -168 -59.5t-59 -169.5q0 -59 25.5 -116t66.5 -106t90.5 -99t99.5 -105t91 -114.5t66.5 -137t25.5 -162.5q0 -117 -66.5 -208t-183.5 -132q4 -36 4 -59 q0 -157 -115.5 -262t-308.5 -105q-27 0 -53 1.5t-47 3.5t-44.5 7t-38 8t-36 10t-31 10t-30 11.5t-25.5 10.5t-25 11.5t-22 10.5l-76 -76h-61zM348 780q0 -52 20.5 -103.5t54.5 -96t76 -89t87 -92.5t85.5 -96.5t74.5 -110.5t51 -126q64 25 93.5 80.5t29.5 127.5 q0 66 -39.5 136t-99.5 135t-122.5 131t-119 148t-78.5 163q-113 -55 -113 -207z" />
<glyph unicode="&#xa8;" horiz-adv-x="450" d="M-113 1329q0 54 35.5 89.5t89.5 35.5t89.5 -35.5t35.5 -89.5t-35.5 -89.5t-89.5 -35.5t-89.5 35.5t-35.5 89.5zM313 1329q0 54 35.5 89.5t89.5 35.5t89.5 -35.5t35.5 -89.5t-35.5 -89.5t-89.5 -35.5t-89.5 35.5t-35.5 89.5z" />
<glyph unicode="&#xa9;" horiz-adv-x="1740" d="M141 727q0 153 60 292.5t161 240.5t240.5 161t292.5 60t292.5 -60t240.5 -161t161 -240.5t60 -292.5t-60 -292.5t-161 -240.5t-240.5 -161t-292.5 -60t-292.5 60t-240.5 161t-161 240.5t-60 292.5zM207 727q0 -139 54.5 -267t147 -221t220 -148.5t266.5 -55.5t266.5 55.5 t220 148.5t147 221t54.5 267t-54.5 267t-147 221t-220 148.5t-266.5 55.5t-266.5 -55.5t-220 -148.5t-147 -221t-54.5 -267zM483 719q0 197 120.5 319.5t322.5 122.5q106 0 209 -47l36 39h52v-279h-62l-24 52q-41 87 -93 127.5t-141 40.5q-98 0 -163.5 -84.5t-65.5 -231.5 q0 -144 82 -224.5t196 -80.5q104 0 167.5 45t103.5 123l47 -20q-124 -326 -373 -326q-80 0 -154.5 30t-132.5 83.5t-92.5 134.5t-34.5 176z" />
<glyph unicode="&#xaa;" horiz-adv-x="901" d="M197 743q0 111 50 226t125.5 203.5t160.5 160t159 110t117 38.5q22 0 39.5 -6.5t26.5 -14t26 -24.5l57 39h21l-154 -494q-49 -140 -49 -215q74 48 146 145l34 -32q-101 -125 -178.5 -194t-146.5 -69q-43 0 -43 52q0 37 8.5 70.5t38.5 97.5l61 143h-4q-57 -97 -100 -159 t-90.5 -111.5t-95.5 -71t-103 -21.5q-47 0 -76.5 35t-29.5 92zM360 823q0 -40 12.5 -54.5t37.5 -14.5q47 0 128 105t149.5 233.5t98.5 218.5q-8 20 -14 30q-22 31 -59 31q-68 0 -153 -101t-142.5 -231.5t-57.5 -216.5z" />
<glyph unicode="&#xab;" horiz-adv-x="976" d="M113 471l12 57l434 394h31l-305 -424l139 -426h-31zM481 475l11 57l432 394h32l-305 -424l142 -426h-33z" />
<glyph unicode="&#xac;" horiz-adv-x="839" d="M147 545l17 82h532l-47 -246h-82l31 164h-451z" />
<glyph unicode="&#xad;" horiz-adv-x="735" d="M170 545l16 82h451l-16 -82h-451z" />
<glyph unicode="&#xae;" horiz-adv-x="1740" d="M141 727q0 153 60 292.5t161 240.5t240.5 161t292.5 60t292.5 -60t240.5 -161t161 -240.5t60 -292.5t-60 -292.5t-161 -240.5t-240.5 -161t-292.5 -60t-292.5 60t-240.5 161t-161 240.5t-60 292.5zM207 727q0 -139 54.5 -267t147 -221t220 -148.5t266.5 -55.5t266.5 55.5 t220 148.5t147 221t54.5 267t-54.5 267t-147 221t-220 148.5t-266.5 55.5t-266.5 -55.5t-220 -148.5t-147 -221t-54.5 -267zM481 315v58h76l57 65v580l-57 65h-76v58h408q193 0 284 -49t91 -158q0 -99 -75 -151t-192 -66v-4l101 -37l231 -336v-25h-221l-188 301 q-41 68 -101 68h-10v-246l57 -65h82v-58h-467zM809 754h72q75 0 125.5 38.5t50.5 125.5q0 153 -178 153h-70v-317z" />
<glyph unicode="&#xaf;" horiz-adv-x="450" d="M-10 1372l20 82h451l-21 -82h-450z" />
<glyph unicode="&#xb0;" horiz-adv-x="708" d="M297 1200q0 104 75 179t179 75t179 -75t75 -179t-75 -179t-179 -75t-179 75t-75 179zM395 1200q0 -66 45 -113t111 -47t111 47t45 113t-45 113t-111 47t-111 -47t-45 -113z" />
<glyph unicode="&#xb1;" horiz-adv-x="1138" d="M29 0l16 94h860l-16 -94h-860zM158 670l18 94h381l76 385h98l-76 -385h381l-18 -94h-381l-78 -402h-98l78 402h-381z" />
<glyph unicode="&#xb2;" horiz-adv-x="849" d="M207 655l18 103q175 123 241 176q284 229 284 387q0 111 -86 111q-57 0 -98.5 -49.5t-41.5 -125.5v-43h-174q-16 21 -16 54q0 77 102 145t238 68q45 0 84.5 -7.5t76.5 -25.5t58.5 -53t21.5 -84q0 -62 -39.5 -128.5t-97.5 -120t-136 -107t-142 -88.5t-129 -66v-4h348 l127 129h24l-100 -271h-563z" />
<glyph unicode="&#xb3;" horiz-adv-x="784" d="M203 831l35 11q84 -92 215 -92q99 0 161 63.5t62 167.5q0 53 -40 85t-99 32q-73 0 -154 -43l12 69l273 197l2 4h-328l57 156h21l67 -27h410l-16 -84l-377 -229v-4q47 18 123 18q81 0 132.5 -49.5t51.5 -140.5q0 -136 -104.5 -243.5t-247.5 -107.5q-208 0 -256 217z" />
<glyph unicode="&#xb4;" horiz-adv-x="450" d="M-55 1184q269 111 458 270l105 -82q-255 -131 -541 -219z" />
<glyph unicode="&#xb5;" horiz-adv-x="1261" d="M-86 -397l506 1278l-39 65h-137l16 58l377 20l-275 -674q-49 -121 -49 -160q0 -67 70 -67q64 0 154.5 90.5t212.5 255.5q62 86 120.5 229t100.5 306l168 10l-244 -690q-43 -118 -43 -199q59 25 112.5 66t127.5 120l30 -32q-116 -136 -227 -221t-180 -85q-43 0 -43 52 q0 77 67 245l80 201h-4q-44 -65 -76.5 -110t-82.5 -109.5t-94.5 -108.5t-96 -86t-103.5 -63t-102 -21q-9 0 -37 4l-147 -374h-162z" />
<glyph unicode="&#xb6;" horiz-adv-x="1177" d="M6 94q0 63 37 92h147v-28q0 -111 84 -111q49 0 99.5 82.5t91.5 243.5l74 276h-21q-165 0 -250 118t-41 284q47 171 188.5 287t319.5 116h508l-16 -57h-105l-364 -1397h-117l356 1397h-127l-221 -846q-34 -127 -78 -229t-100.5 -182t-128 -123.5t-152.5 -43.5 q-93 0 -138.5 33t-45.5 88z" />
<glyph unicode="&#xb7;" horiz-adv-x="567" d="M188 717q0 67 48 115.5t116 48.5t116 -48.5t48 -115.5t-48 -115.5t-116 -48.5t-116 48.5t-48 115.5z" />
<glyph unicode="&#xb8;" horiz-adv-x="450" d="M31 -391l30 47q61 -25 134 -25q42 0 80 32.5t38 80.5q0 32 -26.5 52t-67.5 20q-27 0 -84 -11l-14 13l106 207h66l-72 -144q25 6 64 6q78 0 134 -35.5t56 -105.5q0 -57 -37.5 -97t-93 -57.5t-121.5 -17.5q-81 0 -192 35z" />
<glyph unicode="&#xb9;" horiz-adv-x="827" d="M205 655l10 58h152l98 86l98 522l-248 -117l15 72l422 235h4l-135 -712l65 -86h150l-11 -58h-620z" />
<glyph unicode="&#xba;" horiz-adv-x="997" d="M242 950q0 131 62.5 252t179 200t257.5 79q155 0 246.5 -88.5t91.5 -237.5q0 -97 -37.5 -193.5t-101.5 -173.5t-159 -125.5t-201 -48.5q-159 0 -248.5 92t-89.5 244zM410 963q0 -132 52 -209.5t150 -77.5q69 0 127.5 45.5t95 116t56.5 148.5t20 149q0 132 -52 209 t-150 77q-69 0 -127.5 -45.5t-95 -115.5t-56.5 -148t-20 -149z" />
<glyph unicode="&#xbb;" horiz-adv-x="980" d="M55 72l305 424l-141 426h33l278 -400l-10 -57l-432 -393h-33zM422 76l305 424l-139 426h30l281 -400l-12 -57l-434 -393h-31z" />
<glyph unicode="&#xbc;" horiz-adv-x="1759" d="M113 655l10 58h151l99 86l98 522l-248 -117l15 72l421 235h5l-136 -712l66 -86h149l-10 -58h-620zM227 0l1442 1454h111l-1434 -1454h-119zM981 176l8 39q105 125 161 196.5t124 176t117 211.5h215q-98 -130 -238.5 -280t-280.5 -273v-4h199l14 77l148 146h37l-43 -223 h172l-15 -66h-172l-41 -196h-155l41 196h-291z" />
<glyph unicode="&#xbd;" horiz-adv-x="1892" d="M113 655l10 58h151l99 86l98 522l-248 -117l15 72l421 235h5l-136 -712l66 -86h149l-10 -58h-620zM227 0l1442 1454h111l-1434 -1454h-119zM1083 0l19 102q179 126 253 186q271 223 271 378q0 110 -86 110q-57 0 -98 -49t-41 -125v-43h-174q-17 23 -17 53q0 77 102 145 t238 68q45 0 84.5 -7.5t76.5 -25.5t59 -53t22 -84q0 -62 -39.5 -128.5t-97.5 -120t-136.5 -107t-142.5 -88.5t-129 -66v-4h348l127 129h25l-100 -270h-564z" />
<glyph unicode="&#xbe;" horiz-adv-x="1777" d="M117 831l35 11q84 -92 215 -92q99 0 161 63.5t62 167.5q0 53 -40 85t-99 32q-73 0 -154 -43l12 69l273 197l2 4h-328l57 156h21l67 -27h410l-16 -84l-377 -229v-4q47 18 123 18q81 0 132.5 -49.5t51.5 -140.5q0 -136 -104.5 -243.5t-247.5 -107.5q-208 0 -256 217zM244 0 l1442 1454h110l-1434 -1454h-118zM997 176l9 39q154 184 242 307.5t159 276.5h215q-99 -131 -239 -280.5t-279 -272.5v-4h199l14 77l147 146h37l-43 -223h172l-14 -66h-172l-41 -196h-156l41 196h-291z" />
<glyph unicode="&#xbf;" horiz-adv-x="937" d="M-23 117q0 39 11.5 82t38.5 92.5t52.5 91.5t73.5 100.5t80 97t93.5 103.5t92.5 97t97 99q31 32 47 48l115 119l31 -23q-248 -294 -321 -390q-169 -223 -206 -377q-14 -56 -14 -110q0 -55 30 -87.5t83 -32.5q62 0 120 52t93.5 133t35.5 163v47h175q24 -39 24 -96 q0 -97 -77.5 -180t-194.5 -128t-238 -45q-120 0 -181 38t-61 106zM690 1341q0 60 39.5 100t99.5 40t100 -40t40 -100t-40 -99.5t-100 -39.5t-99.5 39.5t-39.5 99.5z" />
<glyph unicode="&#xc0;" d="M-45 0l8 37l973 1390v109h176v-1393l102 -106l-8 -37h-510l15 57h141l84 86v432h-481l-271 -391l68 -127h168l-14 -57h-451zM510 657h426v613zM879 1782l104 82q151 -168 315 -271l-22 -30q-207 83 -397 219z" />
<glyph unicode="&#xc1;" d="M-45 0l8 37l973 1390v109h176v-1393l102 -106l-8 -37h-510l15 57h141l84 86v432h-481l-271 -391l68 -127h168l-14 -57h-451zM510 657h426v613zM745 1593q269 111 459 271l105 -82q-255 -131 -541 -219z" />
<glyph unicode="&#xc2;" d="M-45 0l8 37l973 1390v109h176v-1393l102 -106l-8 -37h-510l15 57h141l84 86v432h-481l-271 -391l68 -127h168l-14 -57h-451zM510 657h426v613zM711 1593q272 126 417 271v-2l2 2q82 -180 173 -271l-23 -30q-122 73 -188 139q-149 -76 -359 -139z" />
<glyph unicode="&#xc3;" d="M-45 0l8 37l973 1390v109h176v-1393l102 -106l-8 -37h-510l15 57h141l84 86v432h-481l-271 -391l68 -127h168l-14 -57h-451zM510 657h426v613zM766 1714q69 80 132 128t124 48q34 0 66 -15.5t52.5 -34.5t46.5 -34.5t50 -15.5q9 0 18.5 2t18.5 4.5t20 8l19 9.5t20 11.5 t18.5 11.5t18.5 13l16 12t15.5 12t13.5 10l35 -39q-73 -82 -134.5 -129t-123.5 -47q-33 0 -62.5 15.5t-47 34.5t-45 34.5t-58.5 15.5q-66 0 -178 -94z" />
<glyph unicode="&#xc4;" d="M-45 0l8 37l973 1390v109h176v-1393l102 -106l-8 -37h-510l15 57h141l84 86v432h-481l-271 -391l68 -127h168l-14 -57h-451zM510 657h426v613zM721 1739q0 54 35.5 89.5t89.5 35.5t89.5 -35.5t35.5 -89.5t-35.5 -89.5t-89.5 -35.5t-89.5 35.5t-35.5 89.5zM1147 1739 q0 54 35.5 89.5t89.5 35.5t89.5 -35.5t35.5 -89.5t-35.5 -89.5t-89.5 -35.5t-89.5 35.5t-35.5 89.5z" />
<glyph unicode="&#xc5;" d="M-45 0l8 37l973 1390v109h176v-1393l102 -106l-8 -37h-510l15 57h141l84 86v432h-481l-271 -391l68 -127h168l-14 -57h-451zM510 657h426v613zM954 1804q0 72 48 120t118 48q72 0 120 -48t48 -120q0 -70 -48 -118t-120 -48q-69 0 -117.5 48.5t-48.5 117.5zM1022 1804 q0 -41 28.5 -69.5t69.5 -28.5q43 0 73 28.5t30 69.5q0 43 -30 73t-73 30q-41 0 -69.5 -30t-28.5 -73z" />
<glyph unicode="&#xc6;" horiz-adv-x="1951" d="M-68 0l9 37l1020 1298l-43 62h-125l12 57h1214l-69 -348h-37l-74 266h-637v-559h344l154 246h37l-113 -574h-37l-57 246h-328v-588l60 -61h337l256 287h37l-143 -369h-963l15 57h141l84 86v330h-629l-225 -289l68 -127h168l-15 -57h-461zM461 555h565v723z" />
<glyph unicode="&#xc7;" horiz-adv-x="1409" d="M160 524q0 135 37 263t100 232t149 191.5t183.5 146.5t203 91.5t207.5 32.5q90 0 160.5 -16t98.5 -30t63 -38l65 76h62l-86 -443h-62l-10 33q-13 43 -24 73t-28.5 68.5t-36 64.5t-46.5 53t-60 43t-76.5 26t-96.5 10q-110 0 -222.5 -63.5t-200.5 -166t-144 -242.5 t-56 -284q0 -96 23 -184t67.5 -162t119.5 -118t171 -44q176 0 328.5 77.5t259.5 211.5l53 -20q-42 -66 -109 -137t-156.5 -139.5t-201.5 -112.5t-221 -44l-45 -92q25 6 63 6q79 0 135 -35.5t56 -105.5q0 -57 -37.5 -97t-93 -57.5t-121.5 -17.5q-82 0 -193 35l31 47 q61 -25 133 -25q42 0 80.5 32.5t38.5 80.5q0 32 -26.5 52t-67.5 20q-27 0 -84 -11l-15 13l80 157q-102 8 -181.5 44.5t-128.5 89.5t-81 124.5t-44.5 142t-12.5 148.5z" />
<glyph unicode="&#xc8;" horiz-adv-x="1282" d="M18 0l13 57h102l117 86l231 1168l-63 86h-125l12 57h1045l-70 -348h-37l-74 266h-495l-111 -559h314l153 246h37l-113 -574h-36l-58 246h-313l-129 -649h512l256 287h37l-144 -369h-1061zM729 1782l105 82q151 -168 315 -271l-23 -30q-207 83 -397 219z" />
<glyph unicode="&#xc9;" horiz-adv-x="1282" d="M18 0l13 57h102l117 86l231 1168l-63 86h-125l12 57h1045l-70 -348h-37l-74 266h-495l-111 -559h314l153 246h37l-113 -574h-36l-58 246h-313l-129 -649h512l256 287h37l-144 -369h-1061zM657 1593q269 111 459 271l105 -82q-255 -131 -541 -219z" />
<glyph unicode="&#xca;" horiz-adv-x="1282" d="M18 0l13 57h102l117 86l231 1168l-63 86h-125l12 57h1045l-70 -348h-37l-74 266h-495l-111 -559h314l153 246h37l-113 -574h-36l-58 246h-313l-129 -649h512l256 287h37l-144 -369h-1061zM643 1593q274 127 418 271v-2l2 2q83 -182 172 -271l-23 -30q-122 73 -188 139 q-150 -77 -358 -139z" />
<glyph unicode="&#xcb;" horiz-adv-x="1282" d="M18 0l13 57h102l117 86l231 1168l-63 86h-125l12 57h1045l-70 -348h-37l-74 266h-495l-111 -559h314l153 246h37l-113 -574h-36l-58 246h-313l-129 -649h512l256 287h37l-144 -369h-1061zM600 1739q0 54 35.5 89.5t89.5 35.5t89.5 -35.5t35.5 -89.5t-35.5 -89.5 t-89.5 -35.5t-89.5 35.5t-35.5 89.5zM1026 1739q0 54 35.5 89.5t89.5 35.5t89.5 -35.5t35.5 -89.5t-35.5 -89.5t-89.5 -35.5t-89.5 35.5t-35.5 89.5z" />
<glyph unicode="&#xcc;" horiz-adv-x="749" d="M25 0l12 57h113l96 86l231 1168l-63 86h-115l12 57h570l-13 -57h-116l-95 -86l-231 -1168l61 -86h117l-10 -57h-569zM446 1782l105 82q151 -168 315 -271l-22 -30q-209 84 -398 219z" />
<glyph unicode="&#xcd;" horiz-adv-x="749" d="M25 0l12 57h113l96 86l231 1168l-63 86h-115l12 57h570l-13 -57h-116l-95 -86l-231 -1168l61 -86h117l-10 -57h-569zM334 1593q269 111 459 271l104 -82q-255 -131 -541 -219z" />
<glyph unicode="&#xce;" horiz-adv-x="749" d="M25 0l12 57h113l96 86l231 1168l-63 86h-115l12 57h570l-13 -57h-116l-95 -86l-231 -1168l61 -86h117l-10 -57h-569zM299 1593q274 127 418 271v-2l2 2q83 -182 172 -271l-23 -30q-122 73 -188 139q-150 -77 -358 -139z" />
<glyph unicode="&#xcf;" horiz-adv-x="749" d="M25 0l12 57h113l96 86l231 1168l-63 86h-115l12 57h570l-13 -57h-116l-95 -86l-231 -1168l61 -86h117l-10 -57h-569zM293 1739q0 54 35.5 89.5t89.5 35.5t89.5 -35.5t35.5 -89.5t-35.5 -89.5t-89.5 -35.5t-89.5 35.5t-35.5 89.5zM719 1739q0 54 35.5 89.5t89.5 35.5 t89.5 -35.5t35.5 -89.5t-35.5 -89.5t-89.5 -35.5t-89.5 35.5t-35.5 89.5z" />
<glyph unicode="&#xd0;" horiz-adv-x="1495" d="M16 0l13 57h123l98 86l117 600h-191l17 82h190l96 486l-63 86h-125l12 57h559q144 0 256.5 -31.5t181.5 -81t114 -118t62 -136t17 -141.5q0 -140 -41 -278t-121 -258t-187.5 -212t-250.5 -145t-301 -53h-576zM428 150q32 -12 82 -23q77 -23 164 -23q107 0 197 36.5 t152 94.5t110.5 136t77.5 156t47.5 159t25 140.5t6.5 105.5q0 63 -11.5 122t-41 118t-73.5 102.5t-115 70.5t-160 27q-62 0 -148 -16l-75 -17l-103 -514h428l-16 -82h-428z" />
<glyph unicode="&#xd1;" horiz-adv-x="1572" d="M39 0l12 57h99l108 129l213 1082l-68 129h-90l13 57h274l598 -1122h4l191 938l-72 127h-139l12 57h520l-12 -57h-96l-113 -127l-256 -1290h-72l-614 1161h-4l-189 -955l72 -129h139l-10 -57h-520zM719 1714q69 80 132 128t124 48q34 0 66 -15.5t52.5 -34.5t46.5 -34.5 t50 -15.5q9 0 18.5 2t18.5 4.5t20 8l19 9.5t20 11.5t18.5 11.5t18.5 13l16 12t15.5 12t13.5 10l35 -39q-73 -82 -134.5 -129t-123.5 -47q-33 0 -62.5 15.5t-47 34.5t-45 34.5t-58.5 15.5q-66 0 -178 -94z" />
<glyph unicode="&#xd2;" horiz-adv-x="1560" d="M147 475q0 124 35 250t96.5 236t149 206.5t188.5 165.5t219.5 108.5t237.5 39.5q111 0 200 -33.5t143 -84.5t90 -118.5t49.5 -130t13.5 -123.5q0 -200 -81.5 -389t-212.5 -326t-302 -220t-344 -83q-112 0 -199 32.5t-139 82.5t-85.5 118.5t-46 134t-12.5 134.5zM342 592 q0 -252 104.5 -378t290.5 -126q124 0 239.5 65.5t201 175.5t137 262t51.5 318q0 232 -101 346.5t-296 114.5q-126 0 -242 -64t-200 -169.5t-134.5 -248.5t-50.5 -296zM975 1782l104 82q150 -166 316 -271l-23 -30q-207 83 -397 219z" />
<glyph unicode="&#xd3;" horiz-adv-x="1560" d="M147 475q0 124 35 250t96.5 236t149 206.5t188.5 165.5t219.5 108.5t237.5 39.5q111 0 200 -33.5t143 -84.5t90 -118.5t49.5 -130t13.5 -123.5q0 -200 -81.5 -389t-212.5 -326t-302 -220t-344 -83q-112 0 -199 32.5t-139 82.5t-85.5 118.5t-46 134t-12.5 134.5zM342 592 q0 -252 104.5 -378t290.5 -126q124 0 239.5 65.5t201 175.5t137 262t51.5 318q0 232 -101 346.5t-296 114.5q-126 0 -242 -64t-200 -169.5t-134.5 -248.5t-50.5 -296zM821 1593q269 111 459 271l104 -82q-256 -131 -540 -219z" />
<glyph unicode="&#xd4;" horiz-adv-x="1560" d="M147 475q0 124 35 250t96.5 236t149 206.5t188.5 165.5t219.5 108.5t237.5 39.5q111 0 200 -33.5t143 -84.5t90 -118.5t49.5 -130t13.5 -123.5q0 -200 -81.5 -389t-212.5 -326t-302 -220t-344 -83q-112 0 -199 32.5t-139 82.5t-85.5 118.5t-46 134t-12.5 134.5zM342 592 q0 -252 104.5 -378t290.5 -126q124 0 239.5 65.5t201 175.5t137 262t51.5 318q0 232 -101 346.5t-296 114.5q-126 0 -242 -64t-200 -169.5t-134.5 -248.5t-50.5 -296zM817 1593q274 127 418 271v-2l2 2q83 -182 172 -271l-23 -30q-122 73 -188 139q-150 -77 -358 -139z" />
<glyph unicode="&#xd5;" horiz-adv-x="1560" d="M147 475q0 124 35 250t96.5 236t149 206.5t188.5 165.5t219.5 108.5t237.5 39.5q111 0 200 -33.5t143 -84.5t90 -118.5t49.5 -130t13.5 -123.5q0 -200 -81.5 -389t-212.5 -326t-302 -220t-344 -83q-112 0 -199 32.5t-139 82.5t-85.5 118.5t-46 134t-12.5 134.5zM342 592 q0 -252 104.5 -378t290.5 -126q124 0 239.5 65.5t201 175.5t137 262t51.5 318q0 232 -101 346.5t-296 114.5q-126 0 -242 -64t-200 -169.5t-134.5 -248.5t-50.5 -296zM823 1714q69 80 132 128t124 48q34 0 66 -15.5t52.5 -34.5t46.5 -34.5t50 -15.5q27 0 67 20.5t57 32.5 t55 41l34 -39q-73 -82 -134.5 -129t-123.5 -47q-33 0 -62.5 15.5t-47 34.5t-45 34.5t-58.5 15.5q-66 0 -178 -94z" />
<glyph unicode="&#xd6;" horiz-adv-x="1560" d="M147 475q0 124 35 250t96.5 236t149 206.5t188.5 165.5t219.5 108.5t237.5 39.5q111 0 200 -33.5t143 -84.5t90 -118.5t49.5 -130t13.5 -123.5q0 -200 -81.5 -389t-212.5 -326t-302 -220t-344 -83q-112 0 -199 32.5t-139 82.5t-85.5 118.5t-46 134t-12.5 134.5zM342 592 q0 -252 104.5 -378t290.5 -126q124 0 239.5 65.5t201 175.5t137 262t51.5 318q0 232 -101 346.5t-296 114.5q-126 0 -242 -64t-200 -169.5t-134.5 -248.5t-50.5 -296zM780 1739q0 54 35.5 89.5t89.5 35.5t89.5 -35.5t35.5 -89.5t-35.5 -89.5t-89.5 -35.5t-89.5 35.5 t-35.5 89.5zM1206 1739q0 54 35.5 89.5t89.5 35.5t89.5 -35.5t35.5 -89.5t-35.5 -89.5t-89.5 -35.5t-89.5 35.5t-35.5 89.5z" />
<glyph unicode="&#xd7;" horiz-adv-x="1071" d="M29 199l422 372l-273 365l88 74l273 -365l417 367l70 -86l-422 -367l275 -362l-86 -70l-275 358l-422 -368z" />
<glyph unicode="&#xd8;" horiz-adv-x="1560" d="M143 0l113 125q-109 130 -109 350q0 124 35 250t96.5 236t149 206.5t188.5 165.5t219.5 108.5t237.5 39.5q193 0 320 -101l67 74h113l-119 -131q59 -73 87 -162t28 -170q0 -200 -81.5 -389t-212.5 -326t-302 -220t-344 -83q-193 0 -314 93l-59 -66h-113zM342 592 q0 -186 59 -307l871 960q-101 125 -303 125q-126 0 -242 -64t-200 -169.5t-134.5 -248.5t-50.5 -296zM449 211q100 -123 288 -123q124 0 239.5 65.5t201 175.5t137 262t51.5 318q0 161 -49 262z" />
<glyph unicode="&#xd9;" horiz-adv-x="1540" d="M266 1397l13 57h641l-13 -57h-162l-98 -86l-149 -756q-50 -247 9 -356t257 -109q92 0 171.5 37.5t135.5 103t94.5 148.5t57.5 178l143 713l-72 127h-143l12 57h547l-12 -57h-121l-109 -127l-137 -690q-21 -105 -53 -192.5t-83 -166t-116.5 -132t-156.5 -85t-199 -31.5 q-282 0 -380 140t-42 415l156 783l-68 86h-123zM852 1782l104 82q150 -166 316 -271l-23 -30q-207 83 -397 219z" />
<glyph unicode="&#xda;" horiz-adv-x="1540" d="M266 1397l13 57h641l-13 -57h-162l-98 -86l-149 -756q-50 -247 9 -356t257 -109q92 0 171.5 37.5t135.5 103t94.5 148.5t57.5 178l143 713l-72 127h-143l12 57h547l-12 -57h-121l-109 -127l-137 -690q-21 -105 -53 -192.5t-83 -166t-116.5 -132t-156.5 -85t-199 -31.5 q-282 0 -380 140t-42 415l156 783l-68 86h-123zM821 1593q269 111 459 271l104 -82q-256 -131 -540 -219z" />
<glyph unicode="&#xdb;" horiz-adv-x="1540" d="M266 1397l13 57h641l-13 -57h-162l-98 -86l-149 -756q-50 -247 9 -356t257 -109q92 0 171.5 37.5t135.5 103t94.5 148.5t57.5 178l143 713l-72 127h-143l12 57h547l-12 -57h-121l-109 -127l-137 -690q-21 -105 -53 -192.5t-83 -166t-116.5 -132t-156.5 -85t-199 -31.5 q-282 0 -380 140t-42 415l156 783l-68 86h-123zM766 1593q274 127 418 271v-2l2 2q83 -182 172 -271l-23 -30q-122 73 -188 139q-149 -76 -359 -139z" />
<glyph unicode="&#xdc;" horiz-adv-x="1540" d="M266 1397l13 57h641l-13 -57h-162l-98 -86l-149 -756q-50 -247 9 -356t257 -109q92 0 171.5 37.5t135.5 103t94.5 148.5t57.5 178l143 713l-72 127h-143l12 57h547l-12 -57h-121l-109 -127l-137 -690q-21 -105 -53 -192.5t-83 -166t-116.5 -132t-156.5 -85t-199 -31.5 q-282 0 -380 140t-42 415l156 783l-68 86h-123zM743 1739q0 54 35.5 89.5t89.5 35.5t89.5 -35.5t35.5 -89.5t-35.5 -89.5t-89.5 -35.5t-89.5 35.5t-35.5 89.5zM1169 1739q0 54 35.5 89.5t89.5 35.5t89.5 -35.5t35.5 -89.5t-35.5 -89.5t-89.5 -35.5t-89.5 35.5t-35.5 89.5z " />
<glyph unicode="&#xdd;" horiz-adv-x="1241" d="M215 1417l8 37h600l-12 -57h-193l-81 -86l241 -535h4l443 535l-64 86h-153l12 57h420l-8 -37l-619 -723l-108 -551l79 -86h152l-10 -57h-688l10 57h149l117 86l111 545l-287 623zM676 1593q269 111 459 271l104 -82q-255 -131 -541 -219z" />
<glyph unicode="&#xde;" horiz-adv-x="1226" d="M25 0l12 57h113l96 86l10 54l166 837l55 277l-63 86h-115l12 57h570l-13 -57h-116l-95 -86l-26 -133h178q242 0 350.5 -68t108.5 -205q0 -88 -35 -170.5t-95.5 -146.5t-137.5 -112t-165.5 -73.5t-175.5 -25.5h-94l15 72h77q172 0 285 116t113 293q0 114 -67.5 176 t-180.5 62q-115 0 -199 -35l-170 -856l-12 -62l61 -86h117l-10 -57h-569z" />
<glyph unicode="&#xdf;" horiz-adv-x="1081" d="M-379 -305q0 63 37 92h147v-29q0 -110 84 -110q49 0 98.5 82t92.5 243l256 951l-160 32l14 48h168q34 108 79 193t103.5 149.5t134 99.5t163.5 35q91 0 164.5 -21t124.5 -75t51 -136q0 -38 -13 -74.5t-37.5 -68t-44.5 -52.5t-51 -49t-39 -36q-229 0 -229 -156 q0 -50 19.5 -100t47.5 -93.5t56 -88t47.5 -101.5t19.5 -117q0 -157 -88 -248.5t-256 -91.5q-137 0 -252 109l91 221h38l2 -14q16 -114 73 -171t126 -57q60 0 92.5 35t32.5 101q0 55 -20 109.5t-48 99l-56 89t-48 98t-20 107.5q0 75 23.5 135t63 96.5t88 56.5t103.5 24 q28 15 59 49q60 68 60 160q0 87 -63 143.5t-158 56.5q-91 0 -149 -77t-107 -248l-271 -957q-36 -125 -81 -225t-102 -177.5t-129 -120t-153 -42.5q-93 0 -138.5 33t-45.5 88z" />
<glyph unicode="&#xe0;" horiz-adv-x="966" d="M14 139q0 102 47.5 227t125.5 239.5t169.5 211.5t188 155t172.5 58q34 0 61.5 -11t35.5 -18.5t30 -29.5l78 53h20l-217 -686q-49 -140 -49 -215q54 34 98 78.5t96 113.5l35 -32q-100 -138 -200.5 -224t-174.5 -86q-43 0 -43 52q0 65 76 243l88 207h-4 q-66 -109 -117 -183.5t-119 -155t-136 -122t-134 -41.5q-127 0 -127 166zM188 248q0 -59 21 -92t63 -33q53 0 147.5 113.5t185 282t132.5 315.5q-11 14 -37 32q-55 35 -104 35q-85 0 -183 -115.5t-161.5 -269.5t-63.5 -268zM598 1372l104 82q148 -164 316 -270l-23 -31 q-207 83 -397 219z" />
<glyph unicode="&#xe1;" horiz-adv-x="966" d="M14 139q0 102 47.5 227t125.5 239.5t169.5 211.5t188 155t172.5 58q34 0 61.5 -11t35.5 -18.5t30 -29.5l78 53h20l-217 -686q-49 -140 -49 -215q54 34 98 78.5t96 113.5l35 -32q-100 -138 -200.5 -224t-174.5 -86q-43 0 -43 52q0 65 76 243l88 207h-4 q-66 -109 -117 -183.5t-119 -155t-136 -122t-134 -41.5q-127 0 -127 166zM188 248q0 -59 21 -92t63 -33q53 0 147.5 113.5t185 282t132.5 315.5q-11 14 -37 32q-55 35 -104 35q-85 0 -183 -115.5t-161.5 -269.5t-63.5 -268zM526 1184q271 112 459 270l105 -82 q-255 -131 -541 -219z" />
<glyph unicode="&#xe2;" horiz-adv-x="966" d="M14 139q0 102 47.5 227t125.5 239.5t169.5 211.5t188 155t172.5 58q34 0 61.5 -11t35.5 -18.5t30 -29.5l78 53h20l-217 -686q-49 -140 -49 -215q54 34 98 78.5t96 113.5l35 -32q-100 -138 -200.5 -224t-174.5 -86q-43 0 -43 52q0 65 76 243l88 207h-4 q-66 -109 -117 -183.5t-119 -155t-136 -122t-134 -41.5q-127 0 -127 166zM188 248q0 -59 21 -92t63 -33q53 0 147.5 113.5t185 282t132.5 315.5q-11 14 -37 32q-55 35 -104 35q-85 0 -183 -115.5t-161.5 -269.5t-63.5 -268zM471 1184q276 128 418 270v-2l2 2 q82 -180 172 -270l-23 -31q-122 73 -188 139q-150 -77 -358 -139z" />
<glyph unicode="&#xe3;" horiz-adv-x="966" d="M14 139q0 102 47.5 227t125.5 239.5t169.5 211.5t188 155t172.5 58q34 0 61.5 -11t35.5 -18.5t30 -29.5l78 53h20l-217 -686q-49 -140 -49 -215q54 34 98 78.5t96 113.5l35 -32q-100 -138 -200.5 -224t-174.5 -86q-43 0 -43 52q0 65 76 243l88 207h-4 q-66 -109 -117 -183.5t-119 -155t-136 -122t-134 -41.5q-127 0 -127 166zM188 248q0 -59 21 -92t63 -33q53 0 147.5 113.5t185 282t132.5 315.5q-11 14 -37 32q-55 35 -104 35q-85 0 -183 -115.5t-161.5 -269.5t-63.5 -268zM504 1305q69 80 132 128t124 48q34 0 66 -16 t52.5 -34.5t46.5 -34.5t50 -16q11 0 23.5 3t23 7t25.5 12.5t23.5 13.5t24 16t21 15t21 15.5t16.5 12.5l35 -39q-73 -82 -134.5 -129t-123.5 -47q-33 0 -62.5 15.5t-47 34.5t-45 34.5t-58.5 15.5q-66 0 -178 -94z" />
<glyph unicode="&#xe4;" horiz-adv-x="966" d="M14 139q0 102 47.5 227t125.5 239.5t169.5 211.5t188 155t172.5 58q34 0 61.5 -11t35.5 -18.5t30 -29.5l78 53h20l-217 -686q-49 -140 -49 -215q54 34 98 78.5t96 113.5l35 -32q-100 -138 -200.5 -224t-174.5 -86q-43 0 -43 52q0 65 76 243l88 207h-4 q-66 -109 -117 -183.5t-119 -155t-136 -122t-134 -41.5q-127 0 -127 166zM188 248q0 -59 21 -92t63 -33q53 0 147.5 113.5t185 282t132.5 315.5q-11 14 -37 32q-55 35 -104 35q-85 0 -183 -115.5t-161.5 -269.5t-63.5 -268zM469 1329q0 54 35.5 89.5t89.5 35.5t89.5 -35.5 t35.5 -89.5t-35.5 -89.5t-89.5 -35.5t-89.5 35.5t-35.5 89.5zM895 1329q0 54 35.5 89.5t89.5 35.5t89.5 -35.5t35.5 -89.5t-35.5 -89.5t-89.5 -35.5t-89.5 35.5t-35.5 89.5z" />
<glyph unicode="&#xe5;" horiz-adv-x="966" d="M14 139q0 102 47.5 227t125.5 239.5t169.5 211.5t188 155t172.5 58q34 0 61.5 -11t35.5 -18.5t30 -29.5l78 53h20l-217 -686q-49 -140 -49 -215q54 34 98 78.5t96 113.5l35 -32q-100 -138 -200.5 -224t-174.5 -86q-43 0 -43 52q0 65 76 243l88 207h-4 q-66 -109 -117 -183.5t-119 -155t-136 -122t-134 -41.5q-127 0 -127 166zM188 248q0 -59 21 -92t63 -33q53 0 147.5 113.5t185 282t132.5 315.5q-11 14 -37 32q-55 35 -104 35q-85 0 -183 -115.5t-161.5 -269.5t-63.5 -268zM682 1313q0 71 48 119.5t118 48.5q72 0 120 -48 t48 -120q0 -69 -48 -117.5t-120 -48.5q-69 0 -117.5 48.5t-48.5 117.5zM750 1313q0 -41 28.5 -70t69.5 -29q43 0 72.5 29t29.5 70q0 43 -29.5 72.5t-72.5 29.5q-41 0 -69.5 -29.5t-28.5 -72.5z" />
<glyph unicode="&#xe6;" horiz-adv-x="1368" d="M14 139q0 102 47.5 227t125.5 239.5t169.5 211.5t188 155t172.5 58q61 0 108 -37.5t86 -136.5q182 174 357 174q63 0 101 -31t38 -90q0 -94 -94 -192.5t-239.5 -163.5t-285.5 -68q-32 -106 -32 -219q0 -157 104 -157q75 0 177.5 60t197.5 167l31 -23q-111 -148 -260 -244 t-291 -96q-75 0 -115.5 47.5t-40.5 122.5q0 131 84 320h-4q-50 -80 -90.5 -141t-95.5 -130.5t-102.5 -114t-103 -74.5t-106.5 -30q-127 0 -127 166zM188 248q0 -59 21 -92t63 -33q53 0 147.5 113.5t185 282t132.5 315.5q-11 14 -37 32q-55 35 -104 35q-85 0 -183 -115.5 t-161.5 -269.5t-63.5 -268zM805 535h24q95 0 192 53.5t156.5 128t59.5 135.5q0 28 -21 50t-67 22q-100 0 -193 -112.5t-151 -276.5z" />
<glyph unicode="&#xe7;" horiz-adv-x="841" d="M-43 -391l31 47q61 -25 133 -25q42 0 80.5 32.5t38.5 80.5q0 32 -26.5 52t-68.5 20q-27 0 -84 -11l-14 13l82 162q-54 13 -81.5 57t-27.5 106q0 96 39.5 216t110 236.5t158 215t194 159t207.5 60.5q86 0 119 -35t33 -94q0 -82 -76 -162h-127v107q0 78 -68 78 q-73 0 -146.5 -65.5t-126.5 -163.5t-86.5 -214t-33.5 -215q0 -157 105 -157q75 0 177 60t197 167l31 -23q-106 -145 -250.5 -240.5t-283.5 -99.5l-46 -92q25 6 64 6q78 0 134 -35.5t56 -105.5q0 -57 -37.5 -97t-92.5 -57.5t-121 -17.5q-82 0 -193 35z" />
<glyph unicode="&#xe8;" horiz-adv-x="829" d="M20 143q0 96 39.5 216t110 236.5t158 215t194 159t207.5 60.5q63 0 101 -31t38 -90q0 -94 -94 -192.5t-239 -163.5t-285 -68q-33 -109 -33 -219q0 -157 105 -157q75 0 177 60t197 167l31 -23q-111 -148 -260 -244t-291 -96q-75 0 -115.5 47.5t-40.5 122.5zM266 535h25 q71 0 147 32.5t132 80t92 103t36 101.5q0 28 -21 50t-67 22q-100 0 -193 -112.5t-151 -276.5zM561 1372l105 82q149 -165 315 -270l-23 -31q-207 83 -397 219z" />
<glyph unicode="&#xe9;" horiz-adv-x="829" d="M20 143q0 96 39.5 216t110 236.5t158 215t194 159t207.5 60.5q63 0 101 -31t38 -90q0 -94 -94 -192.5t-239 -163.5t-285 -68q-33 -109 -33 -219q0 -157 105 -157q75 0 177 60t197 167l31 -23q-111 -148 -260 -244t-291 -96q-75 0 -115.5 47.5t-40.5 122.5zM266 535h25 q71 0 147 32.5t132 80t92 103t36 101.5q0 28 -21 50t-67 22q-100 0 -193 -112.5t-151 -276.5zM449 1184q269 111 458 270l105 -82q-255 -131 -541 -219z" />
<glyph unicode="&#xea;" horiz-adv-x="829" d="M20 143q0 96 39.5 216t110 236.5t158 215t194 159t207.5 60.5q63 0 101 -31t38 -90q0 -94 -94 -192.5t-239 -163.5t-285 -68q-33 -109 -33 -219q0 -157 105 -157q75 0 177 60t197 167l31 -23q-111 -148 -260 -244t-291 -96q-75 0 -115.5 47.5t-40.5 122.5zM266 535h25 q71 0 147 32.5t132 80t92 103t36 101.5q0 28 -21 50t-67 22q-100 0 -193 -112.5t-151 -276.5zM424 1184q276 128 418 270v-2l2 2q82 -180 172 -270l-23 -31q-122 73 -188 139q-149 -76 -359 -139z" />
<glyph unicode="&#xeb;" horiz-adv-x="829" d="M20 143q0 96 39.5 216t110 236.5t158 215t194 159t207.5 60.5q63 0 101 -31t38 -90q0 -94 -94 -192.5t-239 -163.5t-285 -68q-33 -109 -33 -219q0 -157 105 -157q75 0 177 60t197 167l31 -23q-111 -148 -260 -244t-291 -96q-75 0 -115.5 47.5t-40.5 122.5zM266 535h25 q71 0 147 32.5t132 80t92 103t36 101.5q0 28 -21 50t-67 22q-100 0 -193 -112.5t-151 -276.5zM414 1329q0 54 35.5 89.5t89.5 35.5t89.5 -35.5t35.5 -89.5t-35.5 -89.5t-89.5 -35.5t-89.5 35.5t-35.5 89.5zM840 1329q0 54 35.5 89.5t89.5 35.5t89.5 -35.5t35.5 -89.5 t-35.5 -89.5t-89.5 -35.5t-89.5 35.5t-35.5 89.5z" />
<glyph unicode="&#xec;" horiz-adv-x="561" d="M76 25q0 59 67 258l207 598l-55 65h-137l16 58l377 20l-238 -686q-49 -140 -49 -215q54 34 99 79t96 113l37 -32q-100 -138 -201 -224t-176 -86q-43 0 -43 52zM268 1372l105 82q149 -165 315 -270l-22 -31q-209 84 -398 219z" />
<glyph unicode="&#xed;" horiz-adv-x="561" d="M76 25q0 59 67 258l207 598l-55 65h-137l16 58l377 20l-238 -686q-49 -140 -49 -215q54 34 99 79t96 113l37 -32q-100 -138 -201 -224t-176 -86q-43 0 -43 52zM176 1184q271 112 459 270l104 -82q-256 -131 -540 -219z" />
<glyph unicode="&#xee;" horiz-adv-x="561" d="M76 25q0 59 67 258l207 598l-55 65h-137l16 58l377 20l-238 -686q-49 -140 -49 -215q54 34 99 79t96 113l37 -32q-100 -138 -201 -224t-176 -86q-43 0 -43 52zM141 1184q276 128 418 270v-2l2 2q82 -180 172 -270l-22 -31q-124 74 -189 139q-150 -77 -358 -139z" />
<glyph unicode="&#xef;" horiz-adv-x="561" d="M76 25q0 59 67 258l207 598l-55 65h-137l16 58l377 20l-238 -686q-49 -140 -49 -215q54 34 99 79t96 113l37 -32q-100 -138 -201 -224t-176 -86q-43 0 -43 52zM156 1329q0 54 35.5 89.5t89.5 35.5t89.5 -35.5t35.5 -89.5t-35.5 -89.5t-89.5 -35.5t-89.5 35.5t-35.5 89.5z M582 1329q0 54 35.5 89.5t89.5 35.5t89 -35.5t35 -89.5t-35 -89.5t-89 -35.5t-89.5 35.5t-35.5 89.5z" />
<glyph unicode="&#xf0;" horiz-adv-x="1155" d="M76 319q0 118 50.5 228t132.5 188t191.5 125t223.5 47q79 0 142 -22.5t93 -59.5h4q-3 152 -63 281l-234 -53l23 82l176 41q-49 88 -119.5 152t-150.5 95l14 58q237 -65 391 -275l256 60l-22 -82l-191 -45q119 -198 119 -439q0 -110 -33 -218t-95 -198.5t-143.5 -161 t-185 -110t-213.5 -39.5q-161 0 -263.5 96t-102.5 250zM279 225q0 -184 176 -184q89 0 172.5 64.5t138 158t87 195t32.5 180.5q0 96 -44.5 148.5t-133.5 52.5q-74 0 -143.5 -44t-120 -113t-88.5 -152t-57 -163t-19 -143z" />
<glyph unicode="&#xf1;" horiz-adv-x="1132" d="M47 0l307 881l-55 65h-137l16 58l377 20l-190 -492h4q46 68 96.5 132t114.5 132t126 118.5t131 83t128 32.5q68 0 103.5 -36t35.5 -87q0 -75 -57 -192l-211 -408q-62 -114 -62 -182q59 25 112.5 66t127.5 120l30 -32q-112 -132 -233.5 -219t-192.5 -87q-43 0 -43 52 q0 55 93 245l190 383q2 6 11 27t14.5 35t13 33.5t11 36t3.5 28.5q0 68 -69 68q-81 0 -190 -96t-218 -250q-60 -84 -110.5 -203t-120.5 -332h-156zM561 1305q69 80 132 128t124 48q34 0 66 -16t52.5 -34.5t46.5 -34.5t50 -16q11 0 23.5 3t23 7t25.5 12.5t23.5 13.5t24 16 t21 15t21 15.5t16.5 12.5l35 -39q-73 -82 -134.5 -129t-123.5 -47q-33 0 -62.5 15.5t-47 34.5t-45 34.5t-58.5 15.5q-66 0 -178 -94z" />
<glyph unicode="&#xf2;" horiz-adv-x="870" d="M18 143q0 92 38 210.5t108 236t157 217t196 161.5t214 62q74 0 115 -45.5t41 -124.5q0 -92 -38 -210.5t-108 -236t-157 -217t-196 -161.5t-214 -62q-74 0 -115 45.5t-41 124.5zM215 266q0 -80 24 -118.5t80 -38.5q76 0 151 69t126.5 170t84 214.5t32.5 203.5 q0 80 -24.5 119t-80.5 39q-100 0 -194 -116t-146.5 -268t-52.5 -274zM569 1372l105 82q149 -165 315 -270l-22 -31q-209 84 -398 219z" />
<glyph unicode="&#xf3;" horiz-adv-x="870" d="M18 143q0 92 38 210.5t108 236t157 217t196 161.5t214 62q74 0 115 -45.5t41 -124.5q0 -92 -38 -210.5t-108 -236t-157 -217t-196 -161.5t-214 -62q-74 0 -115 45.5t-41 124.5zM215 266q0 -80 24 -118.5t80 -38.5q76 0 151 69t126.5 170t84 214.5t32.5 203.5 q0 80 -24.5 119t-80.5 39q-100 0 -194 -116t-146.5 -268t-52.5 -274zM477 1184q271 112 459 270l104 -82q-256 -131 -540 -219z" />
<glyph unicode="&#xf4;" horiz-adv-x="870" d="M18 143q0 92 38 210.5t108 236t157 217t196 161.5t214 62q74 0 115 -45.5t41 -124.5q0 -92 -38 -210.5t-108 -236t-157 -217t-196 -161.5t-214 -62q-74 0 -115 45.5t-41 124.5zM215 266q0 -80 24 -118.5t80 -38.5q76 0 151 69t126.5 170t84 214.5t32.5 203.5 q0 80 -24.5 119t-80.5 39q-100 0 -194 -116t-146.5 -268t-52.5 -274zM444 1184q276 128 418 270v-2l2 2q82 -180 172 -270l-22 -31q-124 74 -189 139q-150 -77 -358 -139z" />
<glyph unicode="&#xf5;" horiz-adv-x="870" d="M18 143q0 92 38 210.5t108 236t157 217t196 161.5t214 62q74 0 115 -45.5t41 -124.5q0 -92 -38 -210.5t-108 -236t-157 -217t-196 -161.5t-214 -62q-74 0 -115 45.5t-41 124.5zM215 266q0 -80 24 -118.5t80 -38.5q76 0 151 69t126.5 170t84 214.5t32.5 203.5 q0 80 -24.5 119t-80.5 39q-100 0 -194 -116t-146.5 -268t-52.5 -274zM479 1305q69 80 132 128t124 48q34 0 66 -16t52.5 -34.5t46.5 -34.5t50 -16q11 0 23.5 3t23 7t25.5 12.5t23.5 13.5t24 16t21 15t21 15.5t16.5 12.5l35 -39q-73 -82 -134.5 -129t-123.5 -47 q-33 0 -62.5 15.5t-47 34.5t-45 34.5t-58.5 15.5q-66 0 -178 -94z" />
<glyph unicode="&#xf6;" horiz-adv-x="870" d="M18 143q0 92 38 210.5t108 236t157 217t196 161.5t214 62q74 0 115 -45.5t41 -124.5q0 -92 -38 -210.5t-108 -236t-157 -217t-196 -161.5t-214 -62q-74 0 -115 45.5t-41 124.5zM215 266q0 -80 24 -118.5t80 -38.5q76 0 151 69t126.5 170t84 214.5t32.5 203.5 q0 80 -24.5 119t-80.5 39q-100 0 -194 -116t-146.5 -268t-52.5 -274zM442 1329q0 54 35.5 89.5t89.5 35.5t89.5 -35.5t35.5 -89.5t-35.5 -89.5t-89.5 -35.5t-89.5 35.5t-35.5 89.5zM868 1329q0 54 35.5 89.5t89.5 35.5t89.5 -35.5t35.5 -89.5t-35.5 -89.5t-89.5 -35.5 t-89.5 35.5t-35.5 89.5z" />
<glyph unicode="&#xf7;" horiz-adv-x="1255" d="M113 526l18 95h1004l-19 -95h-1003zM436 258q0 58 40 98.5t99 40.5t99.5 -40.5t40.5 -98.5q0 -60 -40 -100.5t-100 -40.5t-99.5 40.5t-39.5 100.5zM578 891q0 58 40 98.5t99 40.5t99 -40.5t40 -98.5q0 -60 -39.5 -100.5t-99.5 -40.5t-99.5 40.5t-39.5 100.5z" />
<glyph unicode="&#xf8;" horiz-adv-x="870" d="M-98 0l116 119v24q0 92 38 210.5t108 236t157 217t196 161.5t214 62q87 0 127 -61l35 35h113l-121 -121q2 -6 2 -23q0 -92 -38 -210.5t-108 -236t-157 -217t-196 -161.5t-214 -62q-85 0 -127 60l-33 -33h-112zM217 319l492 498q-12 107 -101 107q-70 0 -140 -60.5 t-121 -152t-86 -196.5t-44 -196zM219 207q15 -98 100 -98q70 0 139 58.5t119.5 147.5t86 192t45.5 195z" />
<glyph unicode="&#xf9;" horiz-adv-x="1097" d="M70 90q0 45 24.5 127.5t48.5 132.5l230 531l-56 65h-137l17 58l376 20l-274 -674q-49 -121 -49 -160q0 -67 69 -67q64 0 154.5 90.5t212.5 255.5q62 86 120.5 229t100.5 306l168 10l-244 -690q-43 -118 -43 -199q59 25 112.5 66t127.5 120l31 -32q-116 -136 -227.5 -221 t-180.5 -85q-43 0 -43 52q0 74 68 245l80 201h-4q-44 -65 -76.5 -110t-82.5 -109.5t-94.5 -108.5t-96 -86t-103.5 -63t-102 -21q-66 0 -96.5 34.5t-30.5 82.5zM569 1372l105 82q149 -165 315 -270l-22 -31q-209 84 -398 219z" />
<glyph unicode="&#xfa;" horiz-adv-x="1097" d="M70 90q0 45 24.5 127.5t48.5 132.5l230 531l-56 65h-137l17 58l376 20l-274 -674q-49 -121 -49 -160q0 -67 69 -67q64 0 154.5 90.5t212.5 255.5q62 86 120.5 229t100.5 306l168 10l-244 -690q-43 -118 -43 -199q59 25 112.5 66t127.5 120l31 -32q-116 -136 -227.5 -221 t-180.5 -85q-43 0 -43 52q0 74 68 245l80 201h-4q-44 -65 -76.5 -110t-82.5 -109.5t-94.5 -108.5t-96 -86t-103.5 -63t-102 -21q-66 0 -96.5 34.5t-30.5 82.5zM518 1184q271 112 459 270l104 -82q-256 -131 -540 -219z" />
<glyph unicode="&#xfb;" horiz-adv-x="1097" d="M70 90q0 45 24.5 127.5t48.5 132.5l230 531l-56 65h-137l17 58l376 20l-274 -674q-49 -121 -49 -160q0 -67 69 -67q64 0 154.5 90.5t212.5 255.5q62 86 120.5 229t100.5 306l168 10l-244 -690q-43 -118 -43 -199q59 25 112.5 66t127.5 120l31 -32q-116 -136 -227.5 -221 t-180.5 -85q-43 0 -43 52q0 74 68 245l80 201h-4q-44 -65 -76.5 -110t-82.5 -109.5t-94.5 -108.5t-96 -86t-103.5 -63t-102 -21q-66 0 -96.5 34.5t-30.5 82.5zM483 1184q276 128 418 270v-2l2 2q82 -180 172 -270l-22 -31q-124 74 -189 139q-150 -77 -358 -139z" />
<glyph unicode="&#xfc;" horiz-adv-x="1097" d="M70 90q0 45 24.5 127.5t48.5 132.5l230 531l-56 65h-137l17 58l376 20l-274 -674q-49 -121 -49 -160q0 -67 69 -67q64 0 154.5 90.5t212.5 255.5q62 86 120.5 229t100.5 306l168 10l-244 -690q-43 -118 -43 -199q59 25 112.5 66t127.5 120l31 -32q-116 -136 -227.5 -221 t-180.5 -85q-43 0 -43 52q0 74 68 245l80 201h-4q-44 -65 -76.5 -110t-82.5 -109.5t-94.5 -108.5t-96 -86t-103.5 -63t-102 -21q-66 0 -96.5 34.5t-30.5 82.5zM473 1329q0 54 35.5 89.5t89.5 35.5t89.5 -35.5t35.5 -89.5t-35.5 -89.5t-89.5 -35.5t-89.5 35.5t-35.5 89.5z M899 1329q0 54 35.5 89.5t89.5 35.5t89.5 -35.5t35.5 -89.5t-35.5 -89.5t-89.5 -35.5t-89.5 35.5t-35.5 89.5z" />
<glyph unicode="&#xfd;" horiz-adv-x="923" d="M-375 -305q0 72 68 143h133v-51q0 -38 23 -59t53 -21q60 0 133 48t117 134q30 59 54 168.5t36 208.5t34 297t37 318l-59 65h-96l16 58l318 16q-67 -488 -102 -682.5t-73 -304.5h5q493 556 493 747q0 68 -72 68h-53l23 156q58 26 125 26q49 0 88 -33.5t39 -97.5 q0 -267 -625 -919q-215 -228 -339 -317t-243 -89q-62 0 -97.5 36.5t-35.5 84.5zM418 1184q271 112 459 270l104 -82q-255 -131 -541 -219z" />
<glyph unicode="&#xfe;" horiz-adv-x="921" d="M-270 -399l18 57h146l59 66l455 1607l-56 66h-137l16 57l367 21l-297 -947h6q66 109 117 183.5t119 155t136 122t134 41.5q127 0 127 -166q0 -128 -68 -287t-169.5 -291t-228.5 -222.5t-236 -90.5q-27 0 -64 11l-72 -260l58 -66h129l-19 -57h-540zM217 170q12 -18 37 -35 q52 -33 104 -33q79 0 156.5 69.5t131 171t87 214t33.5 199.5q0 59 -21 92t-63 33q-53 0 -147.5 -113.5t-185 -282t-132.5 -315.5z" />
<glyph unicode="&#xff;" horiz-adv-x="923" d="M-375 -305q0 72 68 143h133v-51q0 -38 23 -59t53 -21q60 0 133 48t117 134q30 59 54 168.5t36 208.5t34 297t37 318l-59 65h-96l16 58l318 16q-67 -488 -102 -682.5t-73 -304.5h5q493 556 493 747q0 68 -72 68h-53l23 156q58 26 125 26q49 0 88 -33.5t39 -97.5 q0 -267 -625 -919q-215 -228 -339 -317t-243 -89q-62 0 -97.5 36.5t-35.5 84.5zM354 1329q0 54 35.5 89.5t89.5 35.5t89.5 -35.5t35.5 -89.5t-35.5 -89.5t-89.5 -35.5t-89.5 35.5t-35.5 89.5zM780 1329q0 54 35.5 89.5t89.5 35.5t89.5 -35.5t35.5 -89.5t-35.5 -89.5 t-89.5 -35.5t-89.5 35.5t-35.5 89.5z" />
<glyph unicode="&#x152;" horiz-adv-x="2023" d="M158 508q0 140 41 278t121 258t187.5 212t250.5 145t301 53h1032l-70 -348h-36l-74 266h-496l-110 -559h313l154 246h36l-112 -574h-37l-57 246h-314l-129 -649h512l256 287h37l-143 -369h-1033q-144 0 -256.5 31.5t-181 81t-113.5 118t-62 136t-17 141.5zM360 522 q0 -63 12 -122t41 -118t73.5 -102.5t115.5 -70.5t160 -27q53 0 147 16l76 17l238 1190q-51 15 -82 22q-108 23 -164 23q-107 0 -197 -36.5t-152 -94.5t-111 -136t-77.5 -156t-47.5 -159t-25.5 -140.5t-6.5 -105.5z" />
<glyph unicode="&#x153;" horiz-adv-x="1378" d="M18 143q0 92 38 210.5t108 236t157 217t196 161.5t214 62q74 0 115 -45.5t41 -124.5q0 -7 -1 -20.5t-1 -20.5q197 211 393 211q63 0 101 -31t38 -90q0 -94 -94 -192.5t-239 -163.5t-285 -68q-33 -109 -33 -219q0 -157 104 -157q75 0 177.5 60t197.5 167l31 -23 q-111 -148 -260 -244t-291 -96q-75 0 -115.5 47.5t-40.5 122.5q0 25 2 39q-199 -209 -397 -209q-74 0 -115 45.5t-41 124.5zM215 266q0 -80 24 -118.5t80 -38.5q76 0 151 69t126.5 170t84 214.5t32.5 203.5q0 80 -24.5 119t-80.5 39q-100 0 -194 -116t-146.5 -268 t-52.5 -274zM815 535h25q71 0 147 32.5t132 80t92 103t36 101.5q0 28 -21 50t-67 22q-100 0 -193 -112.5t-151 -276.5z" />
<glyph unicode="&#x178;" horiz-adv-x="1241" d="M215 1417l8 37h600l-12 -57h-193l-81 -86l241 -535h4l443 535l-64 86h-153l12 57h420l-8 -37l-619 -723l-108 -551l79 -86h152l-10 -57h-688l10 57h149l117 86l111 545l-287 623zM618 1739q0 54 35.5 89.5t89.5 35.5t89.5 -35.5t35.5 -89.5t-35.5 -89.5t-89.5 -35.5 t-89.5 35.5t-35.5 89.5zM1044 1739q0 54 35.5 89.5t89.5 35.5t89.5 -35.5t35.5 -89.5t-35.5 -89.5t-89.5 -35.5t-89.5 35.5t-35.5 89.5z" />
<glyph unicode="&#x2c6;" horiz-adv-x="450" d="M-70 1184q276 128 418 270v-2l2 2q82 -180 172 -270l-22 -31q-124 74 -189 139q-150 -77 -358 -139z" />
<glyph unicode="&#x2dc;" horiz-adv-x="450" d="M-117 1305q69 80 132 128t124 48q34 0 66 -16t52.5 -34.5t46.5 -34.5t50 -16q11 0 23.5 3t23 7t25.5 12.5t23.5 13.5t24 16t21 15t21 15.5t16.5 12.5l35 -39q-73 -82 -134.5 -129t-123.5 -47q-33 0 -62.5 15.5t-47 34.5t-45 34.5t-58.5 15.5q-66 0 -178 -94z" />
<glyph unicode="&#x2000;" horiz-adv-x="986" />
<glyph unicode="&#x2001;" horiz-adv-x="1972" />
<glyph unicode="&#x2002;" horiz-adv-x="986" />
<glyph unicode="&#x2003;" horiz-adv-x="1972" />
<glyph unicode="&#x2004;" horiz-adv-x="657" />
<glyph unicode="&#x2005;" horiz-adv-x="493" />
<glyph unicode="&#x2006;" horiz-adv-x="328" />
<glyph unicode="&#x2007;" horiz-adv-x="328" />
<glyph unicode="&#x2008;" horiz-adv-x="246" />
<glyph unicode="&#x2009;" horiz-adv-x="394" />
<glyph unicode="&#x200a;" horiz-adv-x="109" />
<glyph unicode="&#x2010;" horiz-adv-x="751" d="M188 545v82h451v-82h-451z" />
<glyph unicode="&#x2011;" horiz-adv-x="751" d="M188 545v82h451v-82h-451z" />
<glyph unicode="&#x2012;" horiz-adv-x="751" d="M188 545v82h451v-82h-451z" />
<glyph unicode="&#x2013;" horiz-adv-x="1120" d="M188 545v82h820v-82h-820z" />
<glyph unicode="&#x2014;" horiz-adv-x="2144" d="M188 545v82h1844v-82h-1844z" />
<glyph unicode="&#x2018;" horiz-adv-x="507" d="M272 1081q0 55 35 118.5t89.5 117t120.5 97.5t128 67l17 -43q-75 -31 -152 -90.5t-102 -128.5q74 -1 109.5 -40t35.5 -100t-41.5 -100t-108.5 -39q-61 0 -96 36.5t-35 104.5z" />
<glyph unicode="&#x2019;" horiz-adv-x="505" d="M262 983q74 29 149 89t105 130q-74 1 -109.5 39.5t-35.5 99.5t41 100.5t108 39.5q61 0 96 -37t35 -105q0 -74 -59 -157.5t-143.5 -147t-169.5 -94.5z" />
<glyph unicode="&#x201a;" horiz-adv-x="520" d="M-68 -246q74 29 149 89t105 130q-74 1 -109.5 40t-35.5 100t41 100t108 39q61 0 96.5 -36.5t35.5 -104.5q0 -56 -35 -119t-89.5 -117t-120 -97.5t-128.5 -66.5z" />
<glyph unicode="&#x201c;" horiz-adv-x="937" d="M272 1081q0 55 35 118.5t89.5 117t120.5 97.5t128 67l17 -43q-75 -31 -152 -90.5t-102 -128.5q74 -1 109.5 -40t35.5 -100t-41.5 -100t-108.5 -39q-61 0 -96 36.5t-35 104.5zM702 1081q0 55 35 118.5t89.5 117t120.5 97.5t128 67l17 -43q-75 -31 -152 -90.5t-102 -128.5 q74 -1 109.5 -40t35.5 -100t-41 -100t-108 -39q-61 0 -96.5 36.5t-35.5 104.5z" />
<glyph unicode="&#x201d;" horiz-adv-x="935" d="M262 983q74 29 149 89t105 130q-74 1 -109.5 39.5t-35.5 99.5t41 100.5t108 39.5q61 0 96 -37t35 -105q0 -74 -59 -157.5t-143.5 -147t-169.5 -94.5zM692 983q74 29 149 89t105 130q-74 1 -109.5 39.5t-35.5 99.5t41 100.5t108 39.5q61 0 96 -37t35 -105 q0 -74 -59 -157.5t-143.5 -147t-169.5 -94.5z" />
<glyph unicode="&#x201e;" horiz-adv-x="950" d="M-68 -246q74 29 149 89t105 130q-74 1 -109.5 40t-35.5 100t41 100t108 39q61 0 96.5 -36.5t35.5 -104.5q0 -56 -35 -119t-89.5 -117t-120 -97.5t-128.5 -66.5zM362 -246q74 29 149 89t105 130q-74 1 -109.5 40t-35.5 100t41.5 100t108.5 39q61 0 96 -36.5t35 -104.5 q0 -56 -35 -119t-89.5 -117t-120 -97.5t-128.5 -66.5z" />
<glyph unicode="&#x2022;" horiz-adv-x="700" d="M178 571q0 66 48.5 114t115.5 48t115.5 -48t48.5 -114q0 -67 -48 -115t-116 -48t-116 48t-48 115z" />
<glyph unicode="&#x2026;" horiz-adv-x="1497" d="M41 113q0 60 39.5 99.5t99.5 39.5t101 -39.5t41 -99.5t-41 -100t-101 -40t-99.5 40t-39.5 100zM532 113q0 60 40 99.5t100 39.5t99.5 -39.5t39.5 -99.5t-39.5 -100t-99.5 -40t-100 40t-40 100zM1024 113q0 60 40.5 99.5t100.5 39.5t100 -39.5t40 -99.5t-40 -100t-100 -40 t-100.5 40t-40.5 100z" />
<glyph unicode="&#x202f;" horiz-adv-x="394" />
<glyph unicode="&#x2039;" horiz-adv-x="610" d="M113 471l12 57l434 394h31l-305 -424l139 -426h-31z" />
<glyph unicode="&#x203a;" horiz-adv-x="614" d="M55 72l305 424l-141 426h33l278 -400l-10 -57l-432 -393h-33z" />
<glyph unicode="&#x205f;" horiz-adv-x="493" />
<glyph unicode="&#x20ac;" horiz-adv-x="1476" d="M78 545l18 94h119q7 81 39 192h-115l19 95h131q70 165 191.5 292t269 195t299.5 68q28 0 54 -1.5t46.5 -3.5t41 -7t33.5 -8t29.5 -10t24.5 -10t22 -11.5t18 -11t17 -11.5t15 -10l65 76h62l-86 -443h-62l-10 33q-42 137 -71 189q-68 122 -204 144q-34 5 -73 5 q-166 0 -314.5 -135t-220.5 -340h545l-18 -95h-553q-21 -95 -21 -186v-6h531l-19 -94h-508q9 -83 34 -154t67 -129.5t107.5 -91.5t148.5 -33q171 0 302.5 74.5t243.5 214.5l54 -20q-34 -54 -77 -108t-107.5 -114t-133.5 -105.5t-156.5 -75.5t-175.5 -30q-116 0 -204.5 33.5 t-142 86t-87 127.5t-45.5 148t-12 156v21h-131z" />
<glyph unicode="&#x2122;" horiz-adv-x="2353" d="M264 1057l80 416h59l52 -19h561l57 19h60l-80 -416h-37l-84 327h-125l-123 -632l49 -66h154l-13 -57h-600l13 57h153l70 66l123 632h-121l-211 -327h-37zM1112 629l12 57h72l74 66l110 569l-24 76h-94l12 57h297l133 -580h4l342 580h326l-13 -57h-114l-54 -76l-110 -569 l49 -66h92l-12 -57h-447l13 57h61l70 66l92 473h-4l-354 -596h-70l-129 598h-2l-92 -475l45 -66h82l-13 -57h-354z" />
<glyph unicode="&#x25fc;" horiz-adv-x="1034" d="M0 0v1034h1034v-1034h-1034z" />
</font>
</defs>
</svg>
